<svg width="66" height="66" viewBox="0 0 66 66" fill="none" xmlns="http://www.w3.org/2000/svg">
<path d="M47.2428 24.5144L38.7578 13.9082L33.6062 18.7568L29.6667 24.5144L28.4546 27.8478L29.0607 32.0903L33.6062 36.6358L39.6669 37.848L47.2428 33.3024L48.4549 29.363L47.2428 24.5144Z" fill="url(#paint0_linear_324_369)"/>
<path d="M21.5335 36.3334H20.2108C20.0734 35.9447 19.8193 35.6081 19.4832 35.3694C19.1472 35.1307 18.7456 35.0017 18.3334 35H15C14.4696 35 13.9609 35.2107 13.5858 35.5858C13.2107 35.9609 13 36.4696 13 37V51.0002C13 51.5307 13.2107 52.0394 13.5858 52.4145C13.9609 52.7896 14.4696 53.0003 15 53.0003H18.3334C18.6131 52.9994 18.8895 52.9396 19.1445 52.8247C19.3995 52.7098 19.6274 52.5425 19.8134 52.3336H36.5337C37.5118 52.3339 38.4712 52.0647 39.3064 51.5556L51.8006 43.9495C52.3247 43.6306 52.713 43.1299 52.8913 42.5429C53.0696 41.9559 53.0254 41.3238 52.7672 40.7673C52.509 40.2108 52.0549 39.769 51.4915 39.5261C50.9282 39.2832 50.2951 39.2564 49.7132 39.4507C35.8143 44.0848 37.371 43.6668 36.3597 43.6668C37.1677 41.4254 35.147 39.0001 32.6216 39.0001H29.1336C27.9037 38.9986 26.7107 38.58 25.7495 37.8127C24.5518 36.8572 23.0656 36.3357 21.5335 36.3334ZM18.3334 51.6669H15C14.8232 51.6669 14.6536 51.5967 14.5286 51.4717C14.4036 51.3466 14.3334 51.1771 14.3334 51.0002V37C14.3334 36.8232 14.4036 36.6536 14.5286 36.5286C14.6536 36.4036 14.8232 36.3334 15 36.3334H18.3334C18.5102 36.3334 18.6798 36.4036 18.8048 36.5286C18.9299 36.6536 19.0001 36.8232 19.0001 37V51.0002C19.0001 51.1771 18.9299 51.3466 18.8048 51.4717C18.6798 51.5967 18.5102 51.6669 18.3334 51.6669ZM32.6216 40.3334C34.3903 40.3334 35.9257 42.2488 34.8683 43.6668H30.8169C29.5005 43.6655 28.2134 44.0554 27.1189 44.7868L26.6302 45.1122C26.4831 45.2103 26.381 45.3628 26.3464 45.5362C26.3292 45.6221 26.3291 45.7105 26.3462 45.7964C26.3632 45.8823 26.3969 45.964 26.4455 46.0368C26.4941 46.1097 26.5566 46.1722 26.6294 46.2209C26.7021 46.2696 26.7838 46.3035 26.8696 46.3207C27.043 46.3553 27.2231 46.3196 27.3702 46.2215C28.3515 45.4428 29.5642 45.013 30.8169 45.0002C37.1557 45.0002 37.1017 45.0602 37.797 44.8295L50.1379 40.7154C50.4085 40.6264 50.7024 40.6398 50.9638 40.7531C51.2252 40.8664 51.4359 41.0718 51.5559 41.3302C51.6758 41.5886 51.6968 41.882 51.6147 42.1548C51.5326 42.4276 51.3532 42.6608 51.1106 42.8101L38.6137 50.4169C37.987 50.7984 37.2674 51.0002 36.5337 51.0002H20.3334V37.6667C21.8481 37.6667 23.2868 37.55 24.9168 38.8541C26.1147 39.8098 27.6012 40.3312 29.1336 40.3334H32.6216Z" fill="#021526"/>
<path d="M38.3338 38.3331C44.2152 38.3331 49.0006 33.8744 49.0006 28.3936C49.0006 23.0496 39.2118 13.5854 38.7952 13.1854C38.671 13.0664 38.5058 13 38.3338 13C38.1619 13 37.9966 13.0664 37.8725 13.1854C37.4558 13.5854 27.667 23.0496 27.667 28.3936C27.667 33.8744 32.4524 38.3331 38.3338 38.3331ZM38.3338 14.5994C41.3179 17.5581 47.6673 24.6369 47.6673 28.395C47.6673 33.139 43.4806 36.9998 38.3338 36.9998C33.1871 36.9998 29.0003 33.139 29.0003 28.3936C29.0003 24.6356 35.3498 17.5568 38.3338 14.5994Z" fill="#021526"/>
<path d="M33.6668 30.3331H36.3336V32.9998C36.3336 33.3535 36.474 33.6926 36.7241 33.9427C36.9741 34.1927 37.3133 34.3332 37.6669 34.3332H39.0003C39.3539 34.3332 39.693 34.1927 39.9431 33.9427C40.1931 33.6926 40.3336 33.3535 40.3336 32.9998V30.3331H43.0003C43.354 30.3331 43.6931 30.1927 43.9431 29.9426C44.1932 29.6925 44.3337 29.3534 44.3337 28.9998V27.6664C44.3337 27.3128 44.1932 26.9737 43.9431 26.7236C43.6931 26.4735 43.354 26.3331 43.0003 26.3331H40.3336V23.6664C40.3336 23.3127 40.1931 22.9736 39.9431 22.7235C39.693 22.4735 39.3539 22.333 39.0003 22.333H37.6669C37.3133 22.333 36.9741 22.4735 36.7241 22.7235C36.474 22.9736 36.3336 23.3127 36.3336 23.6664V26.3331H33.6668C33.3132 26.3331 32.9741 26.4735 32.724 26.7236C32.474 26.9737 32.3335 27.3128 32.3335 27.6664V28.9998C32.3335 29.3534 32.474 29.6925 32.724 29.9426C32.9741 30.1927 33.3132 30.3331 33.6668 30.3331ZM33.6668 27.6664H36.3336C36.6872 27.6664 37.0263 27.5259 37.2764 27.2759C37.5264 27.0258 37.6669 26.6867 37.6669 26.3331V23.6664H39.0003V26.3331C39.0003 26.6867 39.1407 27.0258 39.3908 27.2759C39.6408 27.5259 39.98 27.6664 40.3336 27.6664H43.0003V28.9998H40.3336C39.98 28.9998 39.6408 29.1403 39.3908 29.3903C39.1407 29.6404 39.0003 29.9795 39.0003 30.3331V32.9998H37.6669V30.3331C37.6669 29.9795 37.5264 29.6404 37.2764 29.3903C37.0263 29.1403 36.6872 28.9998 36.3336 28.9998H33.6668V27.6664Z" fill="#021526"/>
<defs>
<linearGradient id="paint0_linear_324_369" x1="26.129" y1="42.3019" x2="61.0669" y2="20.5193" gradientUnits="userSpaceOnUse">
<stop stop-color="#8C6034"/>
<stop offset="0.14" stop-color="#A9824F"/>
<stop offset="0.46" stop-color="#F2D893"/>
<stop offset="0.51" stop-color="#FFE79F"/>
<stop offset="0.67" stop-color="#E2C07C"/>
<stop offset="1" stop-color="#A67033"/>
</linearGradient>
</defs>
</svg>
