<svg width="40" height="40" viewBox="0 0 40 40" fill="none" xmlns="http://www.w3.org/2000/svg">
<path d="M3.80937 4.15625L1.73145 5.88785V13.1606H38.7877V6.23417L36.3635 4.15625H3.80937Z" fill="url(#paint0_linear_324_388)"/>
<path d="M35.7143 2.85714H30V1.42857C30 1.04969 29.8495 0.686328 29.5816 0.418419C29.3137 0.15051 28.9503 0 28.5714 0C28.1925 0 27.8292 0.15051 27.5613 0.418419C27.2934 0.686328 27.1429 1.04969 27.1429 1.42857V2.85714H12.8571V1.42857C12.8571 1.04969 12.7066 0.686328 12.4387 0.418419C12.1708 0.15051 11.8075 0 11.4286 0C11.0497 0 10.6863 0.15051 10.4184 0.418419C10.1505 0.686328 10 1.04969 10 1.42857V2.85714H4.28571C3.14907 2.85714 2.05898 3.30867 1.25526 4.1124C0.451529 4.91613 0 6.00622 0 7.14286V35.7143C0 36.8509 0.451529 37.941 1.25526 38.7447C2.05898 39.5485 3.14907 40 4.28571 40H35.7143C36.8509 40 37.941 39.5485 38.7447 38.7447C39.5485 37.941 40 36.8509 40 35.7143V7.14286C40 6.00622 39.5485 4.91613 38.7447 4.1124C37.941 3.30867 36.8509 2.85714 35.7143 2.85714ZM4.28571 5.71429H35.7143C36.0932 5.71429 36.4565 5.8648 36.7244 6.13271C36.9923 6.40061 37.1429 6.76398 37.1429 7.14286V11.4286H2.85714V7.14286C2.85714 6.76398 3.00765 6.40061 3.27556 6.13271C3.54347 5.8648 3.90683 5.71429 4.28571 5.71429ZM35.7143 37.1429H4.28571C3.90683 37.1429 3.54347 36.9923 3.27556 36.7244C3.00765 36.4565 2.85714 36.0932 2.85714 35.7143V14.2857H37.1429V35.7143C37.1429 36.0932 36.9923 36.4565 36.7244 36.7244C36.4565 36.9923 36.0932 37.1429 35.7143 37.1429Z" fill="#021526"/>
<path d="M26.2143 18.916L17.2143 26.6303L13.8629 23.2803C13.5935 23.0201 13.2326 22.8761 12.8581 22.8793C12.4835 22.8826 12.1252 23.0328 11.8603 23.2977C11.5954 23.5626 11.4452 23.9209 11.4419 24.2954C11.4387 24.67 11.5827 25.0309 11.8429 25.3003L16.1286 29.586C16.3831 29.8401 16.724 29.9889 17.0834 30.0027C17.4427 30.0165 17.794 29.8942 18.0672 29.6603L28.0672 21.0889C28.2177 20.9695 28.3426 20.821 28.4344 20.6522C28.5262 20.4834 28.5831 20.2978 28.6015 20.1066C28.6199 19.9153 28.5996 19.7223 28.5417 19.5391C28.4838 19.3559 28.3895 19.1863 28.2646 19.0404C28.1396 18.8944 27.9865 18.7752 27.8143 18.6898C27.6422 18.6044 27.4546 18.5547 27.2628 18.5434C27.071 18.5322 26.8789 18.5598 26.698 18.6246C26.5171 18.6893 26.3512 18.7899 26.2101 18.9203L26.2143 18.916Z" fill="#021526"/>
<defs>
<linearGradient id="paint0_linear_324_388" x1="-2.57743" y1="14.8358" x2="6.03962" y2="-11.6288" gradientUnits="userSpaceOnUse">
<stop stop-color="#8C6034"/>
<stop offset="0.14" stop-color="#A9824F"/>
<stop offset="0.46" stop-color="#F2D893"/>
<stop offset="0.51" stop-color="#FFE79F"/>
<stop offset="0.67" stop-color="#E2C07C"/>
<stop offset="1" stop-color="#A67033"/>
</linearGradient>
</defs>
</svg>
