<svg width="53" height="40" viewBox="0 0 53 40" fill="none" xmlns="http://www.w3.org/2000/svg">
<path d="M51.4701 11.7949H1.07227V25.7347C5.00401 27.7006 15.2265 30.6673 24.6627 26.807C34.0989 22.9468 46.466 24.4837 51.4701 25.7347V11.7949Z" fill="url(#paint0_linear_324_379)"/>
<path d="M49.3418 0H3.28379C1.47204 0 0 1.47204 0 3.28379V8.35103C0 8.93843 0.474168 9.4126 1.06157 9.4126H51.564C52.1515 9.4126 52.6256 8.93843 52.6256 8.35103V3.28379C52.6256 1.47204 51.1536 0 49.3418 0ZM50.5025 7.28946H2.12314V3.28379C2.12314 2.64685 2.64685 2.12314 3.28379 2.12314H49.3418C49.9788 2.12314 50.5025 2.64685 50.5025 3.28379V7.28946ZM51.557 10.8563H1.06865C0.481246 10.8563 0.0070773 11.3305 0.0070773 11.9179V26.0934C0.0070773 26.5393 0.283086 26.9356 0.700637 27.0913C3.07148 27.9759 7.35315 29.0375 14.2675 29.0375C19.9858 29.0375 23.3687 28.1104 26.9781 27.1267C30.5732 26.143 34.2958 25.1097 40.4388 25.1663C44.041 25.1946 47.6929 25.6971 51.288 26.6454C51.6065 26.7304 51.9462 26.6596 52.2081 26.4614C52.4699 26.2633 52.6185 25.9519 52.6185 25.6192V11.9179C52.6185 11.3305 52.1444 10.8563 51.557 10.8563ZM50.4954 24.2534C47.1621 23.4749 43.7863 23.0644 40.4529 23.0361C34.0198 22.9795 29.9717 24.0906 26.3977 25.0743C22.9512 26.0156 19.7028 26.9073 14.2675 26.9073C8.09625 26.9073 4.18967 26.0156 2.13022 25.3362V12.9795H50.4954V24.2534Z" fill="#021526"/>
<path d="M51.8544 29.469C47.9974 28.3437 44.1545 27.7563 40.4178 27.728C34.6428 27.6856 31.2529 28.6197 27.6577 29.5964C24.0838 30.5801 20.3895 31.5992 14.2678 31.5992C9.25007 31.5992 4.91178 31.0755 1.36614 30.0352C1.04766 29.9432 0.700884 30.0069 0.431953 30.205C0.163022 30.4032 0.00732422 30.7216 0.00732422 31.0543V38.9382C0.00732422 39.5256 0.481493 39.9998 1.0689 39.9998H51.5572C52.1446 39.9998 52.6188 39.5256 52.6188 38.9382V30.4881C52.6188 30.021 52.3074 29.6035 51.8544 29.469ZM50.4956 37.8766H2.13047V32.4343C5.59119 33.2906 9.66762 33.7224 14.2678 33.7224C20.6726 33.7224 24.6853 32.6183 28.2168 31.6417C31.6704 30.7004 34.933 29.8158 40.4036 29.8512C43.6945 29.8795 47.0845 30.3607 50.4956 31.2949V37.8766ZM45.0109 16.8858H47.8417C48.4291 16.8858 48.9033 16.4117 48.9033 15.8243C48.9033 15.2369 48.4291 14.7627 47.8417 14.7627H45.0109C44.4235 14.7627 43.9493 15.2369 43.9493 15.8243C43.9493 16.4117 44.4235 16.8858 45.0109 16.8858ZM36.6386 16.8858H40.8212C41.4086 16.8858 41.8828 16.4117 41.8828 15.8243C41.8828 15.2369 41.4086 14.7627 40.8212 14.7627H36.6386C36.0512 14.7627 35.577 15.2369 35.577 15.8243C35.577 16.4117 36.0512 16.8858 36.6386 16.8858ZM29.6252 16.8858H32.456C33.0434 16.8858 33.5176 16.4117 33.5176 15.8243C33.5176 15.2369 33.0434 14.7627 32.456 14.7627H29.6252C29.0378 14.7627 28.5636 15.2369 28.5636 15.8243C28.5636 16.4117 29.0378 16.8858 29.6252 16.8858ZM20.1701 16.8858H23.0009C23.5884 16.8858 24.0625 16.4117 24.0625 15.8243C24.0625 15.2369 23.5884 14.7627 23.0009 14.7627H20.1701C19.5827 14.7627 19.1085 15.2369 19.1085 15.8243C19.1085 16.4117 19.5827 16.8858 20.1701 16.8858ZM11.7978 16.8858H15.9804C16.5678 16.8858 17.042 16.4117 17.042 15.8243C17.042 15.2369 16.5678 14.7627 15.9804 14.7627H11.7978C11.2104 14.7627 10.7363 15.2369 10.7363 15.8243C10.7363 16.4117 11.2104 16.8858 11.7978 16.8858ZM4.78439 16.8858H7.61525C8.20265 16.8858 8.67682 16.4117 8.67682 15.8243C8.67682 15.2369 8.20265 14.7627 7.61525 14.7627H4.78439C4.19699 14.7627 3.72282 15.2369 3.72282 15.8243C3.72282 16.4117 4.19699 16.8858 4.78439 16.8858ZM4.78439 22.3565H7.61525C8.20265 22.3565 8.67682 21.8823 8.67682 21.2949C8.67682 20.7075 8.20265 20.2333 7.61525 20.2333H4.78439C4.19699 20.2333 3.72282 20.7075 3.72282 21.2949C3.72282 21.8823 4.19699 22.3565 4.78439 22.3565ZM34.3244 22.3565H39.6676C40.255 22.3565 40.7292 21.8823 40.7292 21.2949C40.7292 20.7075 40.255 20.2333 39.6676 20.2333H34.3244C33.737 20.2333 33.2628 20.7075 33.2628 21.2949C33.2628 21.8823 33.744 22.3565 34.3244 22.3565ZM28.9811 20.2333H23.6379C23.0505 20.2333 22.5763 20.7075 22.5763 21.2949C22.5763 21.8823 23.0505 22.3565 23.6379 22.3565H28.9811C29.5685 22.3565 30.0427 21.8823 30.0427 21.2949C30.0427 20.7075 29.5685 20.2333 28.9811 20.2333ZM11.8969 21.2949C11.8969 21.8823 12.3711 22.3565 12.9585 22.3565H18.3017C18.8891 22.3565 19.3633 21.8823 19.3633 21.2949C19.3633 20.7075 18.8891 20.2333 18.3017 20.2333H12.9585C12.3711 20.2333 11.8969 20.7075 11.8969 21.2949ZM47.8417 20.2333H45.0109C44.4235 20.2333 43.9493 20.7075 43.9493 21.2949C43.9493 21.8823 44.4235 22.3565 45.0109 22.3565H47.8417C48.4291 22.3565 48.9033 21.8823 48.9033 21.2949C48.9033 20.7075 48.4291 20.2333 47.8417 20.2333Z" fill="#021526"/>
<defs>
<linearGradient id="paint0_linear_324_379" x1="4.3184" y1="13.0822" x2="21.8522" y2="65.0949" gradientUnits="userSpaceOnUse">
<stop stop-color="#8C6034"/>
<stop offset="0.14" stop-color="#A9824F"/>
<stop offset="0.46" stop-color="#F2D893"/>
<stop offset="0.51" stop-color="#FFE79F"/>
<stop offset="0.67" stop-color="#E2C07C"/>
<stop offset="1" stop-color="#A67033"/>
</linearGradient>
</defs>
</svg>
