<svg width="66" height="66" viewBox="0 0 66 66" fill="none" xmlns="http://www.w3.org/2000/svg">
<path d="M30 11.0004C32.8 5.80042 34.5 5.50042 35 6.00042L38.5 8.00043L39 10.0004L38.5 13.0004L32.5 21.5004L28.5 27.0004L26.5 27.5004L24 25.5004V23.0004C24.8333 21.1671 27.2 16.2004 30 11.0004Z" fill="url(#paint0_linear_324_251)"/>
<path d="M24.7521 61.3236C25.9671 61.3236 26.952 60.3387 26.952 59.1237C26.952 57.9088 25.9671 56.9238 24.7521 56.9238C23.5372 56.9238 22.5522 57.9088 22.5522 59.1237C22.5522 60.3387 23.5372 61.3236 24.7521 61.3236Z" fill="#021526"/>
<path d="M43.1763 57.0615C44.0875 57.0615 44.8262 56.3229 44.8262 55.4116C44.8262 54.5004 44.0875 53.7617 43.1763 53.7617C42.2651 53.7617 41.5264 54.5004 41.5264 55.4116C41.5264 56.3229 42.2651 57.0615 43.1763 57.0615Z" fill="#021526"/>
<path d="M8.80323 59.124C9.71446 59.124 10.4531 58.3854 10.4531 57.4741C10.4531 56.5629 9.71446 55.8242 8.80323 55.8242C7.89201 55.8242 7.15332 56.5629 7.15332 57.4741C7.15332 58.3854 7.89201 59.124 8.80323 59.124Z" fill="#021526"/>
<path d="M55.2754 60.499C56.1866 60.499 56.9253 59.7604 56.9253 58.8491C56.9253 57.9379 56.1866 57.1992 55.2754 57.1992C54.3642 57.1992 53.6255 57.9379 53.6255 58.8491C53.6255 59.7604 54.3642 60.499 55.2754 60.499Z" fill="#021526"/>
<path d="M62.7019 37.6645H24.8036C23.8375 37.6645 22.9092 38.0843 22.2571 38.8324C20.8855 40.4054 18.4409 40.4049 17.0705 38.8295C16.4188 38.0807 15.4905 37.648 14.5236 37.6475H3.30318C1.45747 37.6475 0.00348775 39.1402 0.00348775 40.9445C0.00348775 50.5399 -0.021536 49.921 0.0624722 50.1689C0.260324 50.7509 0.891417 51.0494 1.45555 50.8569C3.96576 50.0202 6.38467 50.4975 8.1311 51.7644C11.3641 54.1088 15.8798 54.1088 19.1127 51.7644C21.5457 49.9998 25.0779 49.9998 27.5111 51.7644C30.7443 54.1089 35.2595 54.1089 38.4925 51.7644C40.9259 49.9998 44.458 50.0001 46.891 51.7644C50.1238 54.1088 54.6396 54.1088 57.8723 51.7644C58.3454 51.4221 58.8602 51.1415 59.4043 50.9295C59.5388 50.8769 59.6616 50.7984 59.7658 50.6983C59.8699 50.5982 59.9533 50.4786 60.0112 50.3462C60.0691 50.2139 60.1004 50.0715 60.1033 49.9271C60.1062 49.7826 60.0805 49.6391 60.0279 49.5046C59.9754 49.37 59.8968 49.2471 59.7967 49.143C59.6966 49.0388 59.577 48.9553 59.4447 48.8974C59.3123 48.8395 59.1699 48.8082 59.0255 48.8054C58.881 48.8026 58.7374 48.8282 58.6029 48.8809C57.8849 49.1611 57.2054 49.5317 56.581 49.9836C54.1478 51.7485 50.6157 51.7482 48.1825 49.9836C44.9498 47.6392 40.4339 47.6391 37.2012 49.9836C34.7679 51.7482 31.2358 51.7482 28.8027 49.9836C25.5697 47.6393 21.0542 47.6393 17.8212 49.9836C15.3881 51.7482 11.8559 51.7482 9.42271 49.9836C7.37668 48.4999 4.71826 47.9343 2.20337 48.3898V40.9447C2.20337 40.3495 2.6791 39.8475 3.30332 39.8475H14.5223C14.853 39.8476 15.1769 40.0048 15.4108 40.2737C17.6565 42.8549 21.6662 42.8576 23.9153 40.2781C24.1496 40.0094 24.4734 39.8645 24.8038 39.8645H62.7008C63.307 39.8648 63.8002 40.3675 63.8002 40.9737V62.6987C63.8002 63.3051 63.3067 63.7986 62.7002 63.7986H3.30332C2.69684 63.7986 2.20337 63.3051 2.20337 62.6987V56.924C2.20337 56.6322 2.08749 56.3525 1.88121 56.1462C1.67493 55.9399 1.39515 55.824 1.10343 55.824C0.811708 55.824 0.531933 55.9399 0.325654 56.1462C0.119374 56.3525 0.00348775 56.6322 0.00348775 56.924V62.6987C0.00348775 64.5181 1.48387 65.9985 3.30332 65.9985H62.7002C64.5197 65.9985 66.0001 64.5181 66.0001 62.6987V40.9736C66.0001 39.1548 64.5205 37.6653 62.7019 37.6645Z" fill="#021526"/>
<path d="M19.2762 37.5604C19.7988 37.8622 20.4731 37.6873 20.7787 37.1578L25.8463 28.3804C26.7717 28.6455 27.7581 28.6041 28.6581 28.2624C29.5581 27.9207 30.3235 27.2971 30.8399 26.4847L39.7121 12.8399C41.0355 10.7628 40.4325 8.03327 38.4076 6.69684C38.9418 5.87683 39.5159 5.3721 40.1213 5.19349C43.2382 4.27449 48.23 10.8931 53.3239 9.1306C55.6905 8.31197 57.6507 5.81524 59.3163 1.49769C59.417 1.22644 59.4068 0.926437 59.2879 0.662655C59.169 0.398874 58.951 0.192558 58.681 0.0883996C58.4111 -0.0157589 58.111 -0.00937262 57.8457 0.106175C57.5804 0.221722 57.3714 0.437127 57.2638 0.705728C55.8652 4.33073 54.2978 6.46585 52.6046 7.05157C48.7036 8.40024 43.9553 1.76937 39.4989 3.08339C38.3369 3.42616 37.3497 4.25057 36.5017 5.59167C36.019 5.34025 35.4942 5.17969 34.9534 5.11801C34.3506 5.0483 33.8046 5.48209 33.7356 6.08582C33.7025 6.37565 33.7858 6.66677 33.9673 6.89514C34.1488 7.12352 34.4136 7.27044 34.7034 7.3036C35.3143 7.37358 35.5434 7.57267 37.0734 8.45606C38.2242 9.12043 38.5377 10.5889 37.8623 11.6491L28.99 25.2938C28.6749 25.7905 28.1799 26.146 27.6085 26.2858C27.0372 26.4256 26.4339 26.3389 25.9251 26.0439C24.8646 25.4315 24.4767 24.1008 25.0469 23.0054L30.7695 11.758L32.4517 12.7291C32.7042 12.8719 33.0029 12.9092 33.2827 12.8329C33.5626 12.7565 33.801 12.5728 33.946 12.3215C34.091 12.0703 34.131 11.772 34.0571 11.4914C33.9833 11.2109 33.8016 10.9709 33.5516 10.8237C30.6401 9.14243 30.7764 9.18106 30.4743 9.13761C30.2609 9.10644 30.0432 9.13871 29.848 9.23038C29.6529 9.32206 29.489 9.46911 29.3768 9.65321C29.3376 9.71728 29.7934 8.97524 23.0909 21.9986C22.1638 23.8001 22.5484 25.9332 23.9403 27.2816L18.8735 36.0576C18.7276 36.3103 18.6881 36.6106 18.7637 36.8924C18.8392 37.1742 19.0235 37.4145 19.2762 37.5604ZM15.7698 30.8288C16.014 31.3871 16.6639 31.6383 17.2185 31.3955C17.3508 31.3376 17.4704 31.2542 17.5706 31.1501C17.6707 31.046 17.7493 30.9231 17.8019 30.7886C17.8546 30.6541 17.8802 30.5105 17.8774 30.3661C17.8745 30.2217 17.8432 30.0792 17.7853 29.9469L16.8229 27.747C16.765 27.6147 16.6816 27.495 16.5775 27.3949C16.4733 27.2948 16.3505 27.2162 16.216 27.1636C16.0815 27.1109 15.9379 27.0853 15.7935 27.0882C15.649 27.091 15.5066 27.1223 15.3743 27.1803C15.2419 27.2381 15.1223 27.3215 15.0222 27.4257C14.9221 27.5298 14.8434 27.6526 14.7908 27.7872C14.7382 27.9217 14.7125 28.0652 14.7154 28.2097C14.7182 28.3541 14.7495 28.4965 14.8074 28.6289L15.7698 30.8288ZM10.8343 34.0046C12.1063 34.572 12.2038 34.6502 12.5147 34.6502C12.7273 34.6503 12.9354 34.5887 13.1138 34.473C13.2922 34.3573 13.4333 34.1923 13.5199 33.9981C13.5788 33.8662 13.6111 33.724 13.6149 33.5796C13.6188 33.4352 13.5942 33.2915 13.5426 33.1566C13.4909 33.0217 13.4132 32.8983 13.3138 32.7935C13.2144 32.6887 13.0954 32.6045 12.9635 32.5456L11.7304 31.9957C11.1755 31.748 10.5253 31.9973 10.2778 32.5521C10.0303 33.1069 10.2795 33.7572 10.8343 34.0046Z" fill="#021526"/>
<defs>
<linearGradient id="paint0_linear_324_251" x1="22.2558" y1="31.5323" x2="50.9803" y2="16.6951" gradientUnits="userSpaceOnUse">
<stop stop-color="#8C6034"/>
<stop offset="0.14" stop-color="#A9824F"/>
<stop offset="0.46" stop-color="#F2D893"/>
<stop offset="0.51" stop-color="#FFE79F"/>
<stop offset="0.67" stop-color="#E2C07C"/>
<stop offset="1" stop-color="#A67033"/>
</linearGradient>
</defs>
</svg>
