<svg width="66" height="66" viewBox="0 0 66 66" fill="none" xmlns="http://www.w3.org/2000/svg">
<path d="M16.0847 42.5088L13.9434 44.0109V50.3198H52.1306V44.3113L49.6324 42.5088H16.0847Z" fill="url(#paint0_linear_324_396)"/>
<path fill-rule="evenodd" clip-rule="evenodd" d="M20.8075 24.9825L30.3448 14.0514C30.6329 13.7212 30.9883 13.4565 31.3873 13.2752C31.7862 13.0938 32.2193 13 32.6575 13C33.0957 13 33.5288 13.0938 33.9277 13.2752C34.3267 13.4565 34.6821 13.7212 34.9702 14.0514L44.5075 24.9825L53.608 19.2353C54.1075 18.9214 54.6868 18.7579 55.2767 18.7645C55.8666 18.7711 56.4422 18.9474 56.9346 19.2724C57.4269 19.5973 57.8153 20.0572 58.0533 20.5971C58.2912 21.1369 58.3687 21.7339 58.2764 22.3165L53.9517 49.3388C53.7887 50.3597 53.2672 51.2891 52.4807 51.9602C51.6942 52.6312 50.6942 52.9999 49.6604 53H15.6546C13.5209 53 11.6999 51.4486 11.3633 49.3388L7.03862 22.3165C6.94526 21.7336 7.02201 21.1361 7.25967 20.5956C7.49734 20.0552 7.88582 19.5948 8.37857 19.2695C8.87131 18.9443 9.44739 18.7681 10.0377 18.762C10.6281 18.756 11.2077 18.9203 11.707 19.2353L20.8075 24.9825ZM10.7523 22.8679L14.898 48.7731C14.9265 48.9534 15.0183 49.1176 15.157 49.2362C15.2957 49.3547 15.4721 49.4199 15.6546 49.4199H49.6604C49.8428 49.4199 50.0193 49.3547 50.158 49.2362C50.2967 49.1176 50.3885 48.9534 50.417 48.7731L54.5627 22.8679L46.0493 28.2427C45.4301 28.6337 44.6915 28.7907 43.9669 28.6852C43.2421 28.5797 42.579 28.2188 42.0969 27.6675L32.6575 16.8462L23.2181 27.6675C22.2228 28.806 20.545 29.0518 19.2657 28.2427L10.7523 22.8679Z" fill="#021526"/>
<path fill-rule="evenodd" clip-rule="evenodd" d="M51.8394 40.4678C52.3142 40.4678 52.7695 40.6564 53.1052 40.9921C53.4409 41.3278 53.6295 41.7831 53.6295 42.2578C53.6295 42.7325 53.4409 43.1878 53.1052 43.5235C52.7695 43.8592 52.3142 44.0478 51.8394 44.0478H13.4756C13.0008 44.0478 12.5455 43.8592 12.2098 43.5235C11.8741 43.1878 11.6855 42.7325 11.6855 42.2578C11.6855 41.7831 11.8741 41.3278 12.2098 40.9921C12.5455 40.6564 13.0008 40.4678 13.4756 40.4678H51.8394Z" fill="#021526"/>
<defs>
<linearGradient id="paint0_linear_324_396" x1="9.50298" y1="51.773" x2="15.9762" y2="28.156" gradientUnits="userSpaceOnUse">
<stop stop-color="#8C6034"/>
<stop offset="0.14" stop-color="#A9824F"/>
<stop offset="0.46" stop-color="#F2D893"/>
<stop offset="0.51" stop-color="#FFE79F"/>
<stop offset="0.67" stop-color="#E2C07C"/>
<stop offset="1" stop-color="#A67033"/>
</linearGradient>
</defs>
</svg>
