<svg width="66" height="66" viewBox="0 0 66 66" fill="none" xmlns="http://www.w3.org/2000/svg">
<path d="M16.8094 17.1562L14.7314 18.8879V26.1606H51.7877V19.2342L49.3635 17.1562H16.8094Z" fill="url(#paint0_linear_324_387)"/>
<path d="M48.7143 15.8571H43V14.4286C43 14.0497 42.8495 13.6863 42.5816 13.4184C42.3137 13.1505 41.9503 13 41.5714 13C41.1925 13 40.8292 13.1505 40.5613 13.4184C40.2934 13.6863 40.1429 14.0497 40.1429 14.4286V15.8571H25.8571V14.4286C25.8571 14.0497 25.7066 13.6863 25.4387 13.4184C25.1708 13.1505 24.8075 13 24.4286 13C24.0497 13 23.6863 13.1505 23.4184 13.4184C23.1505 13.6863 23 14.0497 23 14.4286V15.8571H17.2857C16.1491 15.8571 15.059 16.3087 14.2553 17.1124C13.4515 17.9161 13 19.0062 13 20.1429V48.7143C13 49.8509 13.4515 50.941 14.2553 51.7447C15.059 52.5485 16.1491 53 17.2857 53H48.7143C49.8509 53 50.941 52.5485 51.7447 51.7447C52.5485 50.941 53 49.8509 53 48.7143V20.1429C53 19.0062 52.5485 17.9161 51.7447 17.1124C50.941 16.3087 49.8509 15.8571 48.7143 15.8571ZM17.2857 18.7143H48.7143C49.0932 18.7143 49.4565 18.8648 49.7244 19.1327C49.9923 19.4006 50.1429 19.764 50.1429 20.1429V24.4286H15.8571V20.1429C15.8571 19.764 16.0077 19.4006 16.2756 19.1327C16.5435 18.8648 16.9068 18.7143 17.2857 18.7143ZM48.7143 50.1429H17.2857C16.9068 50.1429 16.5435 49.9923 16.2756 49.7244C16.0077 49.4565 15.8571 49.0932 15.8571 48.7143V27.2857H50.1429V48.7143C50.1429 49.0932 49.9923 49.4565 49.7244 49.7244C49.4565 49.9923 49.0932 50.1429 48.7143 50.1429Z" fill="#021526"/>
<path d="M39.2143 31.916L30.2143 39.6303L26.8629 36.2803C26.5935 36.0201 26.2326 35.8761 25.8581 35.8793C25.4835 35.8826 25.1252 36.0328 24.8603 36.2977C24.5954 36.5626 24.4452 36.9209 24.4419 37.2954C24.4387 37.67 24.5827 38.0309 24.8429 38.3003L29.1286 42.586C29.3831 42.8401 29.724 42.9889 30.0834 43.0027C30.4427 43.0165 30.794 42.8942 31.0672 42.6603L41.0672 34.0889C41.2177 33.9695 41.3426 33.821 41.4344 33.6522C41.5262 33.4834 41.5831 33.2978 41.6015 33.1066C41.6199 32.9153 41.5996 32.7223 41.5417 32.5391C41.4838 32.3559 41.3895 32.1863 41.2646 32.0404C41.1396 31.8944 40.9865 31.7752 40.8143 31.6898C40.6422 31.6044 40.4546 31.5547 40.2628 31.5434C40.071 31.5322 39.8789 31.5598 39.698 31.6246C39.5171 31.6893 39.3512 31.7899 39.2101 31.9203L39.2143 31.916Z" fill="#021526"/>
<defs>
<linearGradient id="paint0_linear_324_387" x1="10.4226" y1="27.8358" x2="19.0396" y2="1.37124" gradientUnits="userSpaceOnUse">
<stop stop-color="#8C6034"/>
<stop offset="0.14" stop-color="#A9824F"/>
<stop offset="0.46" stop-color="#F2D893"/>
<stop offset="0.51" stop-color="#FFE79F"/>
<stop offset="0.67" stop-color="#E2C07C"/>
<stop offset="1" stop-color="#A67033"/>
</linearGradient>
</defs>
</svg>
