<svg width="66" height="66" viewBox="0 0 66 66" fill="none" xmlns="http://www.w3.org/2000/svg">
<g clip-path="url(#clip0_324_265)">
<path d="M43 38.5L55 52.5L49 58L37.5 44.5V41.5L35.5 38.5V36H37.5L40.5 38.5H43Z" fill="url(#paint0_linear_324_265)"/>
<path d="M43.7047 64.9724L43.3979 60.1104C43.281 58.242 42.6103 56.4751 41.4584 55.0004C41.3802 54.9003 41.2831 54.8166 41.1726 54.7541C41.0621 54.6915 40.9404 54.6514 40.8143 54.6359C40.6883 54.6204 40.5604 54.6299 40.4381 54.6639C40.3157 54.6978 40.2013 54.7556 40.1012 54.8338C39.8992 54.9916 39.7681 55.2233 39.7369 55.4777C39.7056 55.7322 39.7767 55.9887 39.9346 56.1908C40.8453 57.3566 41.3755 58.7538 41.468 60.2316L41.71 64.0664H7.42543L7.66738 60.2314C7.79049 58.2723 8.67156 56.4809 10.1483 55.1873C11.0285 54.4186 12.0794 53.8709 13.2137 53.5898L18.4374 52.2991C18.7735 52.216 19.0721 52.0228 19.2854 51.7501C19.4988 51.4774 19.6146 51.1411 19.6143 50.7949V47.0624C21.3286 47.7529 23.0419 48.1043 24.5671 48.1043C26.1425 48.1043 27.8226 47.7452 29.4607 47.0927V50.7793C29.4601 51.1262 29.5761 51.4632 29.7901 51.7363C30.004 52.0093 30.3035 52.2026 30.6404 52.2851L35.9226 53.5898C36.3748 53.7016 36.8153 53.8562 37.2382 54.0513C37.4702 54.1525 37.7326 54.1588 37.9692 54.0687C38.2057 53.9787 38.3975 53.7995 38.5034 53.5696C38.6093 53.3397 38.6208 53.0774 38.5355 52.8391C38.4503 52.6008 38.2749 52.4054 38.0472 52.2949C37.513 52.0487 36.9567 51.8536 36.3856 51.7124L31.3943 50.4797V46.1738C32.6413 45.4816 33.8261 44.623 34.8751 43.6274C35.0584 43.4503 35.1643 43.208 35.1698 42.9532C35.1754 42.6983 35.08 42.4516 34.9046 42.2668C34.7292 42.0819 34.4878 41.9737 34.2331 41.9659C33.9783 41.958 33.7308 42.0511 33.5443 42.2248C32.497 43.2184 31.3039 44.0584 30.0565 44.7044C30.0156 44.7214 29.9765 44.7418 29.9386 44.764C28.1648 45.6631 26.2876 46.1707 24.567 46.1707C21.9205 46.1707 18.7581 44.905 16.3139 42.8673C14.2557 41.1514 11.7076 38.1051 11.2297 33.3265C11.2556 29.7388 14.6078 25.3704 18.8838 23.3637C22.2833 21.7694 25.1784 20.1357 27.4995 18.5032C30.742 19.6978 33.2107 21.5922 35.0313 24.2872C36.6242 26.6451 37.4111 29.1582 37.9655 31.321C37.9699 31.8271 37.965 32.2824 37.9499 32.6712C37.9449 32.8012 37.9662 32.931 38.0125 33.0526C38.0589 33.1742 38.1293 33.2852 38.2196 33.379C38.3098 33.4728 38.4181 33.5473 38.5379 33.5982C38.6577 33.6491 38.7865 33.6753 38.9167 33.6752C39.1666 33.675 39.4066 33.5781 39.5866 33.4049C39.7666 33.2316 39.8726 32.9953 39.8822 32.7457C39.8912 32.5103 39.8969 32.2535 39.8995 31.9805L40.6987 31.8135C40.9937 31.7507 41.27 31.62 41.5057 31.4317C41.7413 31.2434 41.9298 31.0027 42.0561 30.7288L42.0563 30.728C42.6483 29.4333 43.3867 27.0936 43.5189 24.7612C43.6708 22.0834 42.9807 20.102 41.5179 18.9869C41.4136 15.572 40.5202 12.8 38.859 10.7414C37.6744 9.27339 36.1353 8.20102 34.2798 7.54488C33.6798 4.44443 31.2165 1.687 27.9733 0.560615C25.1787 -0.409276 19.4256 -0.956096 12.2901 6.28521C12.1102 6.46784 12.0102 6.71446 12.012 6.97082C12.0139 7.22718 12.1176 7.4723 12.3001 7.65226C12.3906 7.7414 12.4977 7.81185 12.6153 7.85959C12.733 7.90733 12.8589 7.93142 12.9858 7.93048C13.1128 7.92955 13.2383 7.90361 13.3553 7.85415C13.4722 7.80468 13.5782 7.73267 13.6673 7.64221C20.0566 1.15822 24.9752 1.56699 27.3385 2.38747C27.9819 2.61034 28.5942 2.91471 29.1603 3.29317C28.5332 3.27316 27.906 3.32803 27.2919 3.45662C25.3103 3.87351 23.3945 4.97398 21.4347 6.8212C21.2939 6.95409 21.1962 7.12617 21.1543 7.31519C21.1124 7.5042 21.1282 7.70145 21.1996 7.88139C21.2711 8.06133 21.3949 8.21568 21.555 8.32447C21.7152 8.43326 21.9043 8.49147 22.0979 8.49157C22.3444 8.49184 22.5817 8.39764 22.7609 8.22834C24.4541 6.63223 26.0666 5.69031 27.6896 5.34884C29.0841 5.05609 30.532 5.2724 31.6139 5.92556C32.088 6.75856 32.368 7.61668 32.4528 8.3869C32.4764 8.5965 32.487 8.80314 32.484 9.00397C32.4831 9.07028 32.4806 9.13655 32.4767 9.20275C32.3608 11.18 30.921 13.3114 28.1934 15.5523C27.7342 15.9287 27.2636 16.2911 26.7824 16.639L26.7815 16.6397C24.4917 18.3 21.5582 19.9731 18.0619 21.6131C13.281 23.8567 9.62457 28.5776 9.31532 32.799C8.90475 32.5861 8.39996 32.197 8.27775 31.9573C7.35852 28.1551 5.83137 18.5222 11.2672 10.5546C11.4079 10.3427 11.4595 10.084 11.4107 9.83434C11.362 9.58473 11.2168 9.36438 11.0067 9.22105C10.7966 9.07771 10.5385 9.02293 10.2883 9.06859C10.0381 9.11424 9.816 9.25665 9.67007 9.46494C3.78395 18.0933 5.42674 28.4076 6.40629 32.4421C6.66256 33.4955 8.27092 34.6985 9.49502 34.8633C10.4712 40.2177 13.9003 44.017 17.6807 46.1348V50.4943L12.7502 51.7125C11.3159 52.0678 9.98715 52.7604 8.87446 53.7326C7.00726 55.3683 5.89338 57.6331 5.73766 60.1098L5.43086 64.9724C5.42253 65.1042 5.4413 65.2363 5.48602 65.3606C5.53075 65.4849 5.60046 65.5987 5.69088 65.695C5.78129 65.7913 5.89048 65.868 6.01171 65.9205C6.13294 65.973 6.26363 66 6.39572 66H42.7398C42.8719 66 43.0026 65.9729 43.1238 65.9205C43.245 65.868 43.3542 65.7913 43.4446 65.695C43.535 65.5987 43.6047 65.4849 43.6495 65.3606C43.6942 65.2363 43.713 65.1042 43.7047 64.9724ZM34.3778 9.66436C37.8512 11.2383 39.1197 14.4983 39.4768 17.5639L39.1012 17.2992C38.8915 17.1515 38.6318 17.0932 38.3792 17.137C38.1265 17.1808 37.9016 17.3232 37.7539 17.5329C37.6062 17.7425 37.5479 18.0022 37.5917 18.2549C37.6355 18.5075 37.7779 18.7325 37.9876 18.8801L40.0039 20.3005C40.018 20.3105 40.0332 20.3174 40.0476 20.3265C40.0579 20.3329 40.0672 20.3405 40.0776 20.3466C42.6168 21.8133 41.4535 27.3954 40.2991 29.9219L39.631 30.0615C38.329 25.3744 35.8737 20.0199 29.3029 17.1429C31.6313 15.2432 34.0393 12.6473 34.3778 9.66436Z" fill="#021526"/>
<path d="M60.2454 56.6079L59.2375 55.4069C59.1186 55.2651 58.973 55.1482 58.8089 55.0627C58.6448 54.9773 58.4655 54.925 58.2812 54.9089C58.0969 54.8928 57.9112 54.9132 57.7348 54.9689C57.5584 55.0246 57.3946 55.1145 57.253 55.2335L54.8767 57.2274L53.7654 55.903L55.9271 54.0892L55.9273 54.0891L57.8739 52.4557C58.0682 52.2902 58.1892 52.0547 58.2105 51.8004C58.2319 51.5461 58.1518 51.2936 57.9877 51.0981C57.8237 50.9027 57.589 50.78 57.3348 50.7568C57.0807 50.7337 56.8277 50.8119 56.631 50.9746L55.425 51.9866L47.161 42.1383L47.1601 42.1371L43.9523 38.3143C43.3969 37.6525 42.3906 37.4879 41.6433 38.0444C41.1712 37.5504 40.7826 36.7719 39.7006 36.3362L38.8975 36.0129L37.9633 34.8996C37.4792 34.323 36.6161 34.2473 36.0395 34.7313L36.0165 34.7507L33.2626 31.4689C33.1813 31.3706 33.0814 31.2893 32.9686 31.2298C32.8558 31.1703 32.7323 31.1337 32.6053 31.1222C32.4783 31.1106 32.3502 31.1243 32.2285 31.1624C32.1068 31.2005 31.9938 31.2624 31.8961 31.3444C31.7984 31.4264 31.7179 31.5269 31.6592 31.6401C31.6005 31.7534 31.5648 31.8771 31.5542 32.0042C31.5435 32.1313 31.5581 32.2593 31.5971 32.3807C31.6361 32.5021 31.6988 32.6147 31.7815 32.7118L34.5353 35.9936L34.5124 36.0129C33.9355 36.4967 33.8599 37.3597 34.3439 37.9371L35.278 39.0502L35.4569 39.8971C35.6986 41.0413 36.3865 41.5416 36.8018 42.1071C36.4991 42.3909 36.312 42.7765 36.2763 43.1899C36.2369 43.6411 36.3756 44.0808 36.6667 44.4278L45.9083 55.4415L45.9087 55.4421L45.9091 55.4424L48.1391 58.1L46.933 59.112C46.781 59.2396 46.6719 59.4108 46.6206 59.6025C46.5693 59.7942 46.5782 59.9971 46.6461 60.1835C46.714 60.37 46.8377 60.531 47.0003 60.6448C47.1629 60.7585 47.3565 60.8195 47.555 60.8194C48.1813 60.8194 48.0871 60.5645 52.2844 57.1458L53.3957 58.4702L51.0191 60.4644C50.4244 60.9636 50.3466 61.8536 50.8456 62.4489C51.69 63.3341 51.9136 64.0692 52.8096 64.1479C52.8515 64.1515 52.8932 64.1533 52.9348 64.1533C53.265 64.1533 53.5817 64.0384 53.8376 63.8235L60.0722 58.5923C60.6666 58.0929 60.7444 57.2031 60.2454 56.6079ZM37.3484 39.4973L37.1196 38.4138C37.0386 38.0298 36.8132 37.9139 36.19 37.129L36.8473 36.5774L37.5716 37.4406C37.8222 37.739 38.0648 37.7321 38.9782 38.1294C39.1888 38.2144 39.3753 38.3498 39.5214 38.5236L40.1587 39.2831L38.2794 40.8599C37.7836 40.2199 37.4594 40.0223 37.3484 39.4973ZM38.3005 43.3668L42.6237 39.7391L45.0572 42.6392L40.734 46.2668L38.3005 43.3668ZM49.6202 56.8568L48.0112 54.9393L49.2567 53.8942C49.451 53.7287 49.572 53.4931 49.5933 53.2388C49.6146 52.9845 49.5345 52.7321 49.3705 52.5366C49.2064 52.3411 48.9717 52.2184 48.7176 52.1953C48.4634 52.1721 48.2104 52.2504 48.0138 52.413L46.7684 53.4581L44.8287 51.1465L46.0742 50.1015C46.2706 49.9367 46.3935 49.7006 46.4159 49.4451C46.4382 49.1897 46.3582 48.9359 46.1933 48.7395C46.0285 48.5431 45.7924 48.4202 45.537 48.3978C45.2816 48.3755 45.0277 48.4555 44.8313 48.6203L43.5858 49.6654L41.9768 47.7479L46.3001 44.1204L53.9433 53.2291L49.6202 56.8568ZM52.997 62.0046L52.6643 61.6082L58.0941 57.0522L58.4268 57.4486L52.997 62.0046Z" fill="#021526"/>
</g>
<defs>
<linearGradient id="paint0_linear_324_265" x1="33.2326" y1="62.093" x2="66.1395" y2="40.3262" gradientUnits="userSpaceOnUse">
<stop stop-color="#8C6034"/>
<stop offset="0.14" stop-color="#A9824F"/>
<stop offset="0.46" stop-color="#F2D893"/>
<stop offset="0.51" stop-color="#FFE79F"/>
<stop offset="0.67" stop-color="#E2C07C"/>
<stop offset="1" stop-color="#A67033"/>
</linearGradient>
<clipPath id="clip0_324_265">
<rect width="66" height="66" fill="white"/>
</clipPath>
</defs>
</svg>
