<svg width="66" height="66" viewBox="0 0 66 66" fill="none" xmlns="http://www.w3.org/2000/svg">
<path d="M46.313 14.375L42.938 15.5L44.6255 21.125L46.8755 27.875L36.188 52.0625H39.563L43.5005 50.9375L53.6255 27.875L49.688 17.1875L46.313 14.375Z" fill="url(#paint0_linear_324_406)"/>
<path d="M37.4849 20.6523C37.1626 20.6603 36.8421 20.6015 36.5436 20.4797C36.222 20.311 35.9455 20.0677 35.7372 19.7702C35.5289 19.4728 35.3948 19.1298 35.3462 18.7699C35.2975 18.41 35.3358 18.0437 35.4577 17.7016C35.5796 17.3596 35.7816 17.0516 36.0469 16.8036C36.3121 16.5556 36.6329 16.3747 36.9824 16.276C37.3319 16.1773 37.6999 16.1638 38.0558 16.2364C38.4116 16.3091 38.7448 16.4659 39.0276 16.6937C39.3104 16.9215 39.5346 17.2137 39.6813 17.5459C39.9089 18.1041 39.9089 18.7292 39.6813 19.2874C39.4989 19.7123 39.1905 20.0711 38.7977 20.3152C38.4049 20.5592 37.9467 20.6769 37.4849 20.6523Z" fill="url(#paint1_linear_324_406)"/>
<path d="M32.0254 55.9989C31.0601 55.994 30.1054 55.7966 29.2172 55.4185L16.2584 49.8019C15.4065 49.4366 14.6353 48.9064 13.9892 48.2419C13.3431 47.5773 12.8348 46.7916 12.4936 45.9298C12.1524 45.068 11.985 44.1472 12.0011 43.2205C12.0171 42.2938 12.2163 41.3794 12.5872 40.5299L22.0004 18.8482C22.3608 18.0024 22.8844 17.2359 23.5413 16.5925C24.1981 15.9491 24.9753 15.4415 25.8284 15.0987L35.1161 11.4903C36.8577 10.8058 38.7996 10.8392 40.5167 11.5831C42.2339 12.327 43.5864 13.7208 44.2783 15.4595L47.9494 24.7315C48.2982 25.5933 48.4709 26.5161 48.4574 27.4457C48.444 28.3753 48.2445 29.2928 47.8709 30.1441L38.4578 51.8101C37.7164 53.5293 36.3225 54.8837 34.5827 55.5753C33.763 55.8704 32.8965 56.0139 32.0254 55.9989ZM15.4582 41.7693C15.0522 42.7251 15.0385 43.8023 15.4201 44.7681C15.8017 45.734 16.548 46.5108 17.4978 46.9309L30.4723 52.5317C30.9439 52.7367 31.4514 52.8466 31.9656 52.855C32.4798 52.8634 32.9907 52.7701 33.4688 52.5807C33.9468 52.3912 34.3828 52.1091 34.7517 51.7508C35.1205 51.3924 35.415 50.9647 35.6181 50.4922L45.0313 28.8105C45.4228 27.8501 45.4228 26.7745 45.0313 25.814L41.3602 16.5263C40.9759 15.5622 40.2252 14.7896 39.2724 14.3779C38.3196 13.9662 37.2425 13.949 36.277 14.3299L26.9894 18.0011C26.5091 18.1906 26.0716 18.4742 25.7025 18.8353C25.3334 19.1963 25.0402 19.6274 24.84 20.1033L15.4582 41.7693Z" fill="#021526"/>
<path d="M40.0576 53.8492C39.3147 53.8463 38.5776 53.7191 37.8769 53.4727C37.4969 53.3229 37.1903 53.031 37.0222 52.6587C36.8541 52.2865 36.8378 51.8635 36.9767 51.4794C37.1156 51.0953 37.3988 50.7806 37.7661 50.602C38.1334 50.4235 38.5559 50.3952 38.9437 50.5232C39.7362 50.8076 40.6072 50.7793 41.3796 50.4441C42.152 50.109 42.7676 49.4921 43.1012 48.719L51.4475 29.3435C51.7772 28.5284 51.7772 27.6171 51.4475 26.802L48.2157 18.5498C47.9243 17.8109 47.3782 17.2008 46.6761 16.8296C45.974 16.4584 45.1622 16.3507 44.3876 16.5259C43.9715 16.6133 43.5378 16.5318 43.1818 16.2994C42.8258 16.0669 42.5767 15.7026 42.4893 15.2865C42.4019 14.8704 42.4834 14.4367 42.7159 14.0807C42.9483 13.7247 43.3126 13.4756 43.7287 13.3882C45.2374 13.0609 46.8134 13.2843 48.1716 14.0181C49.5298 14.7519 50.5806 15.9475 51.1337 17.3888L54.4127 25.6096C54.7245 26.3987 54.8767 27.2418 54.8605 28.09C54.8444 28.9383 54.6602 29.775 54.3185 30.5516L45.9565 49.8957C45.4665 51.0585 44.6468 52.0525 43.5986 52.7551C42.5504 53.4576 41.3194 53.838 40.0576 53.8492ZM35.1313 28.4807C35.8735 28.9928 36.4481 29.7126 36.783 30.5498C37.1179 31.3871 37.1982 32.3045 37.014 33.1873L33.1859 32.7009C33.3461 32.4046 33.4067 32.0646 33.3586 31.7312C33.3106 31.3978 33.1565 31.0887 32.9192 30.8496C32.7594 30.6711 32.5609 30.5316 32.3388 30.4417C32.0948 30.3214 31.8264 30.2588 31.5543 30.2588C31.2823 30.2588 31.0139 30.3214 30.7699 30.4417C30.6223 30.5189 30.5019 30.6393 30.4248 30.7869C30.2208 31.2419 30.4248 31.7439 31.0523 32.3558C31.4053 32.6729 31.7831 32.9614 32.1819 33.2186C33.1076 33.8494 33.9327 34.6163 34.6293 35.4935C35.0018 36.0422 35.2214 36.6803 35.2655 37.3421C35.3096 38.0038 35.1767 38.6654 34.8803 39.2588C34.604 39.8415 34.1753 40.3387 33.6395 40.6978C33.1037 41.0568 32.4808 41.2643 31.8367 41.2983C31.0882 41.4153 30.3261 41.4153 29.5776 41.2983L29.0912 42.4279L25.5613 40.859L26.0633 39.7137C25.4771 39.2841 24.9892 38.7344 24.6321 38.1014C24.275 37.4684 24.0569 36.7665 23.9924 36.0426C23.9296 35.6476 23.9296 35.2452 23.9924 34.8503L27.8361 35.3366C27.6833 35.6494 27.639 36.0042 27.71 36.3451C27.781 36.6859 27.9633 36.9934 28.2283 37.2192C28.453 37.4459 28.7194 37.627 29.0128 37.7526C29.3071 37.9239 29.6361 38.0269 29.9755 38.0541C30.3149 38.0812 30.6561 38.0318 30.9739 37.9095C31.1097 37.8494 31.2206 37.7441 31.2876 37.6115C31.4916 37.1251 31.2876 36.6074 30.6915 36.0426L28.9657 34.7247C27.9014 34.046 27.0737 33.0539 26.5967 31.8851C26.3468 30.9696 26.436 29.9946 26.8477 29.1396C27.1146 28.568 27.5224 28.0737 28.0329 27.7032C28.5434 27.3327 29.1397 27.0981 29.7658 27.0216C30.3651 26.9507 30.9707 26.9507 31.57 27.0216L32.0877 25.845L35.602 27.4138L35.1313 28.4807Z" fill="#021526"/>
<defs>
<linearGradient id="paint0_linear_324_406" x1="34.1604" y1="59.0741" x2="71.9558" y2="46.0238" gradientUnits="userSpaceOnUse">
<stop stop-color="#8C6034"/>
<stop offset="0.14" stop-color="#A9824F"/>
<stop offset="0.46" stop-color="#F2D893"/>
<stop offset="0.51" stop-color="#FFE79F"/>
<stop offset="0.67" stop-color="#E2C07C"/>
<stop offset="1" stop-color="#A67033"/>
</linearGradient>
<linearGradient id="paint1_linear_324_406" x1="34.7994" y1="21.4862" x2="41.783" y2="16.203" gradientUnits="userSpaceOnUse">
<stop stop-color="#8C6034"/>
<stop offset="0.14" stop-color="#A9824F"/>
<stop offset="0.46" stop-color="#F2D893"/>
<stop offset="0.51" stop-color="#FFE79F"/>
<stop offset="0.67" stop-color="#E2C07C"/>
<stop offset="1" stop-color="#A67033"/>
</linearGradient>
</defs>
</svg>
