<svg width="66" height="66" viewBox="0 0 66 66" fill="none" xmlns="http://www.w3.org/2000/svg">
<path d="M50.5 16L45 10.5L30 25L31 26L29 28L33 32L34.5 30.5H36L50.5 16Z" fill="url(#paint0_linear_324_274)"/>
<path d="M64.9688 35.0623V32.9998H29.3019L30.9375 31.3642L32.2709 32.6976C32.4643 32.891 32.7265 32.9996 33 32.9996C33.2734 32.9996 33.5357 32.891 33.7291 32.6976L35.0625 31.3642L35.3647 31.6664C35.558 31.8597 35.8203 31.9683 36.0938 31.9683C36.3672 31.9683 36.6295 31.8597 36.8228 31.6664L51.2603 17.2289C51.4537 17.0355 51.5623 16.7732 51.5623 16.4998C51.5623 16.2263 51.4537 15.9641 51.2603 15.7707L49.9269 14.4373L54.1406 10.2236L54.9584 11.0414C55.1518 11.2347 55.4141 11.3433 55.6875 11.3433C55.9609 11.3433 56.2232 11.2347 56.4166 11.0414L58.4791 8.97887C58.6724 8.78548 58.781 8.52323 58.781 8.24978C58.781 7.97633 58.6724 7.71407 58.4791 7.52069L53.3228 2.36444C53.1295 2.17111 52.8672 2.0625 52.5938 2.0625C52.3203 2.0625 52.058 2.17111 51.8647 2.36444L49.8022 4.42694C49.6088 4.62032 49.5002 4.88258 49.5002 5.15603C49.5002 5.42948 49.6088 5.69174 49.8022 5.88512L50.6199 6.7029L46.4062 10.9166L45.0728 9.58319C44.8795 9.38986 44.6172 9.28125 44.3438 9.28125C44.0703 9.28125 43.808 9.38986 43.6147 9.58319L29.1772 24.0207C28.9838 24.2141 28.8752 24.4763 28.8752 24.7498C28.8752 25.0232 28.9838 25.2855 29.1772 25.4789L29.4793 25.781L28.1459 27.1144C27.9526 27.3078 27.844 27.5701 27.844 27.8435C27.844 28.117 27.9526 28.3792 28.1459 28.5726L29.4793 29.906L26.3856 32.9998H1.03125V35.0623H24.3231L22.2606 37.1248H1.03125V39.1873H20.1981L18.8647 40.5207L20.3228 41.9789L23.1144 39.1873H64.9688V37.1248H25.1769L27.2394 35.0623H64.9688ZM52.5938 4.55172L56.2918 8.24978L55.6875 8.85409L51.9894 5.15603L52.5938 4.55172ZM52.0781 8.16109L52.6824 8.7654L48.4688 12.9791L47.8644 12.3748L52.0781 8.16109ZM33.5156 22.5986L35.3647 24.4476L36.8228 22.9894L34.9738 21.1404L36.6094 19.5048L38.4584 21.3539L39.9166 19.8957L38.0676 18.0467L39.7031 16.4111L41.5522 18.2601L43.0103 16.8019L41.1613 14.9529L44.3438 11.7705L49.0731 16.4998L36.0938 29.4791L31.3644 24.7498L33.5156 22.5986ZM33.6043 29.906L33 30.5103L30.3332 27.8435L30.9375 27.2392L33.6043 29.906ZM8.25 43.3123C7.43415 43.3123 6.63663 43.5542 5.95827 44.0075C5.27992 44.4607 4.75121 45.105 4.439 45.8587C4.12679 46.6124 4.0451 47.4419 4.20426 48.242C4.36342 49.0422 4.75629 49.7772 5.33318 50.3541C5.91008 50.931 6.64508 51.3239 7.44525 51.483C8.24542 51.6422 9.07482 51.5605 9.82857 51.2483C10.5823 50.9361 11.2266 50.4074 11.6798 49.729C12.1331 49.0507 12.375 48.2531 12.375 47.4373C12.375 46.3433 11.9404 45.2941 11.1668 44.5205C10.3932 43.7469 9.34402 43.3123 8.25 43.3123ZM8.25 49.4998C7.84208 49.4998 7.44331 49.3788 7.10414 49.1522C6.76496 48.9256 6.5006 48.6034 6.3445 48.2266C6.18839 47.8497 6.14755 47.435 6.22713 47.0349C6.30671 46.6348 6.50315 46.2673 6.79159 45.9789C7.08004 45.6904 7.44754 45.494 7.84763 45.4144C8.24771 45.3348 8.66241 45.3757 9.03928 45.5318C9.41616 45.6879 9.73828 45.9522 9.96491 46.2914C10.1915 46.6306 10.3125 47.0294 10.3125 47.4373C10.3125 47.9843 10.0952 48.5089 9.70841 48.8957C9.32161 49.2825 8.79701 49.4998 8.25 49.4998ZM24.75 43.3123C23.9342 43.3123 23.1366 43.5542 22.4583 44.0075C21.7799 44.4607 21.2512 45.105 20.939 45.8587C20.6268 46.6124 20.5451 47.4419 20.7043 48.242C20.8634 49.0422 21.2563 49.7772 21.8332 50.3541C22.4101 50.931 23.1451 51.3239 23.9453 51.483C24.7454 51.6422 25.5748 51.5605 26.3286 51.2483C27.0823 50.9361 27.7266 50.4074 28.1798 49.729C28.6331 49.0507 28.875 48.2531 28.875 47.4373C28.875 46.3433 28.4404 45.2941 27.6668 44.5205C26.8932 43.7469 25.844 43.3123 24.75 43.3123ZM24.75 49.4998C24.3421 49.4998 23.9433 49.3788 23.6041 49.1522C23.265 48.9256 23.0006 48.6034 22.8445 48.2266C22.6884 47.8497 22.6475 47.435 22.7271 47.0349C22.8067 46.6348 23.0031 46.2673 23.2916 45.9789C23.58 45.6904 23.9475 45.494 24.3476 45.4144C24.7477 45.3348 25.1624 45.3757 25.5393 45.5318C25.9162 45.6879 26.2383 45.9522 26.4649 46.2914C26.6915 46.6306 26.8125 47.0294 26.8125 47.4373C26.8125 47.9843 26.5952 48.5089 26.2084 48.8957C25.8216 49.2825 25.297 49.4998 24.75 49.4998ZM41.25 43.3123C40.4342 43.3123 39.6366 43.5542 38.9583 44.0075C38.2799 44.4607 37.7512 45.105 37.439 45.8587C37.1268 46.6124 37.0451 47.4419 37.2043 48.242C37.3634 49.0422 37.7563 49.7772 38.3332 50.3541C38.9101 50.931 39.6451 51.3239 40.4453 51.483C41.2454 51.6422 42.0748 51.5605 42.8286 51.2483C43.5823 50.9361 44.2266 50.4074 44.6798 49.729C45.1331 49.0507 45.375 48.2531 45.375 47.4373C45.375 46.3433 44.9404 45.2941 44.1668 44.5205C43.3932 43.7469 42.344 43.3123 41.25 43.3123ZM41.25 49.4998C40.8421 49.4998 40.4433 49.3788 40.1041 49.1522C39.765 48.9256 39.5006 48.6034 39.3445 48.2266C39.1884 47.8497 39.1475 47.435 39.2271 47.0349C39.3067 46.6348 39.5031 46.2673 39.7916 45.9789C40.08 45.6904 40.4475 45.494 40.8476 45.4144C41.2477 45.3348 41.6624 45.3757 42.0393 45.5318C42.4162 45.6879 42.7383 45.9522 42.9649 46.2914C43.1915 46.6306 43.3125 47.0294 43.3125 47.4373C43.3125 47.9843 43.0952 48.5089 42.7084 48.8957C42.3216 49.2825 41.797 49.4998 41.25 49.4998ZM57.75 43.3123C56.9342 43.3123 56.1366 43.5542 55.4583 44.0075C54.7799 44.4607 54.2512 45.105 53.939 45.8587C53.6268 46.6124 53.5451 47.4419 53.7043 48.242C53.8634 49.0422 54.2563 49.7772 54.8332 50.3541C55.4101 50.931 56.1451 51.3239 56.9453 51.483C57.7454 51.6422 58.5748 51.5605 59.3286 51.2483C60.0823 50.9361 60.7266 50.4074 61.1798 49.729C61.6331 49.0507 61.875 48.2531 61.875 47.4373C61.875 46.3433 61.4404 45.2941 60.6668 44.5205C59.8932 43.7469 58.844 43.3123 57.75 43.3123ZM57.75 49.4998C57.3421 49.4998 56.9433 49.3788 56.6041 49.1522C56.265 48.9256 56.0006 48.6034 55.8445 48.2266C55.6884 47.8497 55.6475 47.435 55.7271 47.0349C55.8067 46.6348 56.0031 46.2673 56.2916 45.9789C56.58 45.6904 56.9475 45.494 57.3476 45.4144C57.7477 45.3348 58.1624 45.3757 58.5393 45.5318C58.9162 45.6879 59.2383 45.9522 59.4649 46.2914C59.6915 46.6306 59.8125 47.0294 59.8125 47.4373C59.8125 47.9843 59.5952 48.5089 59.2084 48.8957C58.8216 49.2825 58.297 49.4998 57.75 49.4998ZM16.5 52.4904C15.8881 52.4904 15.29 52.6718 14.7812 53.0118C14.2724 53.3517 13.8759 53.8349 13.6417 54.4002C13.4076 54.9655 13.3463 55.5876 13.4657 56.1877C13.5851 56.7878 13.8797 57.3391 14.3124 57.7718C14.7451 58.2044 15.2963 58.4991 15.8964 58.6185C16.4966 58.7378 17.1186 58.6766 17.6839 58.4424C18.2492 58.2082 18.7324 57.8117 19.0724 57.3029C19.4123 56.7942 19.5938 56.196 19.5938 55.5842C19.5938 54.7636 19.2678 53.9767 18.6876 53.3965C18.1074 52.8163 17.3205 52.4904 16.5 52.4904ZM16.5 56.6154C16.296 56.6154 16.0967 56.5549 15.9271 56.4416C15.7575 56.3283 15.6253 56.1672 15.5472 55.9788C15.4692 55.7904 15.4488 55.583 15.4886 55.383C15.5284 55.1829 15.6266 54.9992 15.7708 54.8549C15.915 54.7107 16.0988 54.6125 16.2988 54.5727C16.4989 54.5329 16.7062 54.5533 16.8946 54.6314C17.0831 54.7095 17.2441 54.8416 17.3575 55.0112C17.4708 55.1808 17.5312 55.3802 17.5312 55.5842C17.5312 55.8577 17.4226 56.12 17.2292 56.3134C17.0358 56.5068 16.7735 56.6154 16.5 56.6154ZM33 52.5935C32.3881 52.5935 31.79 52.775 31.2812 53.1149C30.7724 53.4549 30.3759 53.938 30.1417 54.5033C29.9076 55.0687 29.8463 55.6907 29.9657 56.2908C30.0851 56.891 30.3797 57.4422 30.8124 57.8749C31.2451 58.3076 31.7963 58.6022 32.3964 58.7216C32.9966 58.841 33.6186 58.7797 34.1839 58.5455C34.7492 58.3114 35.2324 57.9148 35.5724 57.4061C35.9123 56.8973 36.0938 56.2992 36.0938 55.6873C36.0938 54.8668 35.7678 54.0799 35.1876 53.4997C34.6074 52.9195 33.8205 52.5935 33 52.5935ZM33 56.7185C32.796 56.7185 32.5967 56.658 32.4271 56.5447C32.2575 56.4314 32.1253 56.2704 32.0472 56.0819C31.9692 55.8935 31.9488 55.6861 31.9886 55.4861C32.0284 55.286 32.1266 55.1023 32.2708 54.9581C32.415 54.8139 32.5988 54.7156 32.7988 54.6758C32.9989 54.6361 33.2062 54.6565 33.3946 54.7345C33.5831 54.8126 33.7441 54.9448 33.8575 55.1143C33.9708 55.2839 34.0312 55.4833 34.0312 55.6873C34.0312 55.9608 33.9226 56.2231 33.7292 56.4165C33.5358 56.6099 33.2735 56.7185 33 56.7185ZM49.5 52.5935C48.8881 52.5935 48.29 52.775 47.7812 53.1149C47.2724 53.4549 46.8759 53.938 46.6418 54.5033C46.4076 55.0687 46.3463 55.6907 46.4657 56.2908C46.5851 56.891 46.8797 57.4422 47.3124 57.8749C47.7451 58.3076 48.2963 58.6022 48.8964 58.7216C49.4966 58.841 50.1186 58.7797 50.6839 58.5455C51.2492 58.3114 51.7324 57.9148 52.0724 57.4061C52.4123 56.8973 52.5938 56.2992 52.5938 55.6873C52.5938 54.8668 52.2678 54.0799 51.6876 53.4997C51.1074 52.9195 50.3205 52.5935 49.5 52.5935ZM49.5 56.7185C49.296 56.7185 49.0967 56.658 48.9271 56.5447C48.7575 56.4314 48.6253 56.2704 48.5473 56.0819C48.4692 55.8935 48.4488 55.6861 48.4886 55.4861C48.5284 55.286 48.6266 55.1023 48.7708 54.9581C48.915 54.8139 49.0988 54.7156 49.2988 54.6758C49.4989 54.6361 49.7062 54.6565 49.8946 54.7345C50.0831 54.8126 50.2441 54.9448 50.3575 55.1143C50.4708 55.2839 50.5312 55.4833 50.5312 55.6873C50.5312 55.9608 50.4226 56.2231 50.2292 56.4165C50.0358 56.6099 49.7735 56.7185 49.5 56.7185Z" fill="#021526"/>
<path d="M24.75 63.9375C25.8891 63.9375 26.8125 63.0141 26.8125 61.875C26.8125 60.7359 25.8891 59.8125 24.75 59.8125C23.6109 59.8125 22.6875 60.7359 22.6875 61.875C22.6875 63.0141 23.6109 63.9375 24.75 63.9375Z" fill="#021526"/>
<path d="M41.25 63.9375C42.3891 63.9375 43.3125 63.0141 43.3125 61.875C43.3125 60.7359 42.3891 59.8125 41.25 59.8125C40.1109 59.8125 39.1875 60.7359 39.1875 61.875C39.1875 63.0141 40.1109 63.9375 41.25 63.9375Z" fill="#021526"/>
<path d="M57.75 63.9375C58.8891 63.9375 59.8125 63.0141 59.8125 61.875C59.8125 60.7359 58.8891 59.8125 57.75 59.8125C56.6109 59.8125 55.6875 60.7359 55.6875 61.875C55.6875 63.0141 56.6109 63.9375 57.75 63.9375Z" fill="#021526"/>
<path d="M8.25 63.9375C9.38909 63.9375 10.3125 63.0141 10.3125 61.875C10.3125 60.7359 9.38909 59.8125 8.25 59.8125C7.11091 59.8125 6.1875 60.7359 6.1875 61.875C6.1875 63.0141 7.11091 63.9375 8.25 63.9375Z" fill="#021526"/>
<defs>
<linearGradient id="paint0_linear_324_274" x1="26.5" y1="36" x2="60" y2="11" gradientUnits="userSpaceOnUse">
<stop stop-color="#8C6034"/>
<stop offset="0.14" stop-color="#A9824F"/>
<stop offset="0.46" stop-color="#F2D893"/>
<stop offset="0.51" stop-color="#FFE79F"/>
<stop offset="0.67" stop-color="#E2C07C"/>
<stop offset="1" stop-color="#A67033"/>
</linearGradient>
</defs>
</svg>
