<svg width="40" height="40" viewBox="0 0 40 40" fill="none" xmlns="http://www.w3.org/2000/svg">
<path d="M34.2428 11.5144L25.7578 0.908203L20.6062 5.75676L16.6667 11.5144L15.4546 14.8478L16.0607 19.0903L20.6062 23.6358L26.6669 24.848L34.2428 20.3024L35.4549 16.363L34.2428 11.5144Z" fill="url(#paint0_linear_324_370)"/>
<path d="M8.53346 23.3334H7.21078C7.07338 22.9447 6.81928 22.6081 6.48323 22.3694C6.14718 22.1307 5.74559 22.0017 5.33341 22H2.00003C1.46959 22 0.960874 22.2107 0.585795 22.5858C0.210717 22.9609 0 23.4696 0 24L0 38.0002C0 38.5307 0.210717 39.0394 0.585795 39.4145C0.960874 39.7896 1.46959 40.0003 2.00003 40.0003H5.33341C5.61311 39.9994 5.88947 39.9396 6.14449 39.8247C6.39951 39.7098 6.62744 39.5425 6.81344 39.3336H23.5337C24.5118 39.3339 25.4712 39.0647 26.3064 38.5556L38.8006 30.9495C39.3247 30.6306 39.713 30.1299 39.8913 29.5429C40.0696 28.9559 40.0254 28.3238 39.7672 27.7673C39.509 27.2108 39.0549 26.769 38.4915 26.5261C37.9282 26.2832 37.2951 26.2564 36.7132 26.4507C22.8143 31.0848 24.371 30.6668 23.3597 30.6668C24.1677 28.4254 22.147 26.0001 19.6216 26.0001H16.1336C14.9037 25.9986 13.7107 25.58 12.7495 24.8127C11.5518 23.8572 10.0656 23.3357 8.53346 23.3334ZM5.33341 38.6669H2.00003C1.82322 38.6669 1.65364 38.5967 1.52862 38.4717C1.40359 38.3466 1.33335 38.1771 1.33335 38.0002V24C1.33335 23.8232 1.40359 23.6536 1.52862 23.5286C1.65364 23.4036 1.82322 23.3334 2.00003 23.3334H5.33341C5.51023 23.3334 5.6798 23.4036 5.80483 23.5286C5.92985 23.6536 6.00009 23.8232 6.00009 24V38.0002C6.00009 38.1771 5.92985 38.3466 5.80483 38.4717C5.6798 38.5967 5.51023 38.6669 5.33341 38.6669ZM19.6216 27.3334C21.3903 27.3334 22.9257 29.2488 21.8683 30.6668H17.8169C16.5005 30.6655 15.2134 31.0554 14.1189 31.7868L13.6302 32.1122C13.4831 32.2103 13.381 32.3628 13.3464 32.5362C13.3292 32.6221 13.3291 32.7105 13.3462 32.7964C13.3632 32.8823 13.3969 32.964 13.4455 33.0368C13.4941 33.1097 13.5566 33.1722 13.6294 33.2209C13.7021 33.2696 13.7838 33.3035 13.8696 33.3207C14.043 33.3553 14.2231 33.3196 14.3702 33.2215C15.3515 32.4428 16.5642 32.013 17.8169 32.0002C24.1557 32.0002 24.1017 32.0602 24.797 31.8295L37.1379 27.7154C37.4085 27.6264 37.7024 27.6398 37.9638 27.7531C38.2252 27.8664 38.4359 28.0718 38.5559 28.3302C38.6758 28.5886 38.6968 28.882 38.6147 29.1548C38.5326 29.4276 38.3532 29.6608 38.1106 29.8101L25.6137 37.4169C24.987 37.7984 24.2674 38.0002 23.5337 38.0002H7.33344V24.6667C8.84813 24.6667 10.2868 24.55 11.9168 25.8541C13.1147 26.8098 14.6012 27.3312 16.1336 27.3334H19.6216Z" fill="#021526"/>
<path d="M25.3338 25.3331C31.2152 25.3331 36.0006 20.8744 36.0006 15.3936C36.0006 10.0496 26.2118 0.585411 25.7952 0.185404C25.671 0.0664258 25.5058 0 25.3338 0C25.1619 0 24.9966 0.0664258 24.8725 0.185404C24.4558 0.585411 14.667 10.0496 14.667 15.3936C14.667 20.8744 19.4524 25.3331 25.3338 25.3331ZM25.3338 1.59943C28.3179 4.55814 34.6673 11.6369 34.6673 15.395C34.6673 20.139 30.4806 23.9998 25.3338 23.9998C20.1871 23.9998 16.0003 20.139 16.0003 15.3936C16.0003 11.6356 22.3498 4.5568 25.3338 1.59943Z" fill="#021526"/>
<path d="M20.6668 17.3331H23.3336V19.9998C23.3336 20.3535 23.474 20.6926 23.7241 20.9427C23.9741 21.1927 24.3133 21.3332 24.6669 21.3332H26.0003C26.3539 21.3332 26.693 21.1927 26.9431 20.9427C27.1931 20.6926 27.3336 20.3535 27.3336 19.9998V17.3331H30.0003C30.354 17.3331 30.6931 17.1927 30.9431 16.9426C31.1932 16.6925 31.3337 16.3534 31.3337 15.9998V14.6664C31.3337 14.3128 31.1932 13.9737 30.9431 13.7236C30.6931 13.4735 30.354 13.3331 30.0003 13.3331H27.3336V10.6664C27.3336 10.3127 27.1931 9.97359 26.9431 9.72354C26.693 9.47349 26.3539 9.33301 26.0003 9.33301H24.6669C24.3133 9.33301 23.9741 9.47349 23.7241 9.72354C23.474 9.97359 23.3336 10.3127 23.3336 10.6664V13.3331H20.6668C20.3132 13.3331 19.9741 13.4735 19.724 13.7236C19.474 13.9737 19.3335 14.3128 19.3335 14.6664V15.9998C19.3335 16.3534 19.474 16.6925 19.724 16.9426C19.9741 17.1927 20.3132 17.3331 20.6668 17.3331ZM20.6668 14.6664H23.3336C23.6872 14.6664 24.0263 14.5259 24.2764 14.2759C24.5264 14.0258 24.6669 13.6867 24.6669 13.3331V10.6664H26.0003V13.3331C26.0003 13.6867 26.1407 14.0258 26.3908 14.2759C26.6408 14.5259 26.98 14.6664 27.3336 14.6664H30.0003V15.9998H27.3336C26.98 15.9998 26.6408 16.1403 26.3908 16.3903C26.1407 16.6404 26.0003 16.9795 26.0003 17.3331V19.9998H24.6669V17.3331C24.6669 16.9795 24.5264 16.6404 24.2764 16.3903C24.0263 16.1403 23.6872 15.9998 23.3336 15.9998H20.6668V14.6664Z" fill="#021526"/>
<defs>
<linearGradient id="paint0_linear_324_370" x1="13.129" y1="29.3019" x2="48.0669" y2="7.51928" gradientUnits="userSpaceOnUse">
<stop stop-color="#8C6034"/>
<stop offset="0.14" stop-color="#A9824F"/>
<stop offset="0.46" stop-color="#F2D893"/>
<stop offset="0.51" stop-color="#FFE79F"/>
<stop offset="0.67" stop-color="#E2C07C"/>
<stop offset="1" stop-color="#A67033"/>
</linearGradient>
</defs>
</svg>
