<svg width="52" height="40" viewBox="0 0 52 40" fill="none" xmlns="http://www.w3.org/2000/svg">
<path d="M9.0847 29.5088L6.94336 31.0109V37.3198H45.1306V31.3113L42.6324 29.5088H9.0847Z" fill="url(#paint0_linear_324_398)"/>
<path fill-rule="evenodd" clip-rule="evenodd" d="M13.8075 11.9825L23.3448 1.05139C23.6329 0.721206 23.9883 0.456537 24.3873 0.275184C24.7862 0.0938317 25.2193 0 25.6575 0C26.0957 0 26.5288 0.0938317 26.9277 0.275184C27.3267 0.456537 27.6821 0.721206 27.9702 1.05139L37.5075 11.9825L46.608 6.23531C47.1075 5.92138 47.6868 5.75793 48.2767 5.7645C48.8666 5.77108 49.4422 5.94739 49.9346 6.27237C50.4269 6.59735 50.8153 7.05724 51.0533 7.59708C51.2912 8.13692 51.3687 8.73386 51.2764 9.31655L46.9517 36.3388C46.7887 37.3597 46.2672 38.2891 45.4807 38.9602C44.6942 39.6312 43.6942 39.9999 42.6604 40H8.65462C6.52091 40 4.69985 38.4486 4.36333 36.3388L0.0386223 9.31655C-0.0547405 8.73358 0.0220101 8.13607 0.259673 7.59562C0.497336 7.05518 0.885824 6.59475 1.37857 6.26953C1.87131 5.94431 2.44739 5.76811 3.03775 5.76204C3.62811 5.75597 4.20769 5.92029 4.70701 6.23531L13.8075 11.9825ZM3.75233 9.86788L7.89804 35.7731C7.92646 35.9534 8.01828 36.1176 8.15698 36.2362C8.29568 36.3547 8.47215 36.4199 8.65462 36.4199H42.6604C42.8428 36.4199 43.0193 36.3547 43.158 36.2362C43.2967 36.1176 43.3885 35.9534 43.417 35.7731L47.5627 9.86788L39.0493 15.2427C38.4301 15.6337 37.6915 15.7907 36.9669 15.6852C36.2421 15.5797 35.579 15.2188 35.0969 14.6675L25.6575 3.84622L16.2181 14.6675C15.2228 15.806 13.545 16.0518 12.2657 15.2427L3.75233 9.86788Z" fill="#021526"/>
<path fill-rule="evenodd" clip-rule="evenodd" d="M44.8394 27.4678C45.3142 27.4678 45.7695 27.6564 46.1052 27.9921C46.4409 28.3278 46.6295 28.7831 46.6295 29.2578C46.6295 29.7325 46.4409 30.1878 46.1052 30.5235C45.7695 30.8592 45.3142 31.0478 44.8394 31.0478H6.47557C6.00083 31.0478 5.54553 30.8592 5.20983 30.5235C4.87414 30.1878 4.68555 29.7325 4.68555 29.2578C4.68555 28.7831 4.87414 28.3278 5.20983 27.9921C5.54553 27.6564 6.00083 27.4678 6.47557 27.4678H44.8394Z" fill="#021526"/>
<defs>
<linearGradient id="paint0_linear_324_398" x1="2.50298" y1="38.773" x2="8.97619" y2="15.156" gradientUnits="userSpaceOnUse">
<stop stop-color="#8C6034"/>
<stop offset="0.14" stop-color="#A9824F"/>
<stop offset="0.46" stop-color="#F2D893"/>
<stop offset="0.51" stop-color="#FFE79F"/>
<stop offset="0.67" stop-color="#E2C07C"/>
<stop offset="1" stop-color="#A67033"/>
</linearGradient>
</defs>
</svg>
