<svg width="66" height="66" viewBox="0 0 66 66" fill="none" xmlns="http://www.w3.org/2000/svg">
<path d="M58.4701 24.7949H8.07227V38.7347C12.004 40.7006 22.2265 43.6673 31.6627 39.807C41.0989 35.9468 53.466 37.4837 58.4701 38.7347V24.7949Z" fill="url(#paint0_linear_324_378)"/>
<path d="M56.3418 13H10.2838C8.47204 13 7 14.472 7 16.2838V21.351C7 21.9384 7.47417 22.4126 8.06157 22.4126H58.564C59.1515 22.4126 59.6256 21.9384 59.6256 21.351V16.2838C59.6256 14.472 58.1536 13 56.3418 13ZM57.5025 20.2895H9.12314V16.2838C9.12314 15.6469 9.64685 15.1231 10.2838 15.1231H56.3418C56.9788 15.1231 57.5025 15.6469 57.5025 16.2838V20.2895ZM58.557 23.8563H8.06865C7.48125 23.8563 7.00708 24.3305 7.00708 24.9179V39.0934C7.00708 39.5393 7.28309 39.9356 7.70064 40.0913C10.0715 40.9759 14.3531 42.0375 21.2675 42.0375C26.9858 42.0375 30.3687 41.1104 33.9781 40.1267C37.5732 39.143 41.2958 38.1097 47.4388 38.1663C51.041 38.1946 54.6929 38.6971 58.288 39.6454C58.6065 39.7304 58.9462 39.6596 59.2081 39.4614C59.4699 39.2633 59.6185 38.9519 59.6185 38.6192V24.9179C59.6185 24.3305 59.1444 23.8563 58.557 23.8563ZM57.4954 37.2534C54.1621 36.4749 50.7863 36.0644 47.4529 36.0361C41.0198 35.9795 36.9717 37.0906 33.3977 38.0743C29.9512 39.0156 26.7028 39.9073 21.2675 39.9073C15.0962 39.9073 11.1897 39.0156 9.13022 38.3362V25.9795H57.4954V37.2534Z" fill="#021526"/>
<path d="M58.8544 42.469C54.9974 41.3437 51.1545 40.7563 47.4178 40.728C41.6428 40.6856 38.2529 41.6197 34.6577 42.5964C31.0838 43.5801 27.3895 44.5992 21.2678 44.5992C16.2501 44.5992 11.9118 44.0755 8.36614 43.0352C8.04766 42.9432 7.70088 43.0069 7.43195 43.205C7.16302 43.4032 7.00732 43.7216 7.00732 44.0543V51.9382C7.00732 52.5256 7.48149 52.9998 8.0689 52.9998H58.5572C59.1446 52.9998 59.6188 52.5256 59.6188 51.9382V43.4881C59.6188 43.021 59.3074 42.6035 58.8544 42.469ZM57.4956 50.8766H9.13047V45.4343C12.5912 46.2906 16.6676 46.7224 21.2678 46.7224C27.6726 46.7224 31.6853 45.6183 35.2168 44.6417C38.6704 43.7004 41.933 42.8158 47.4036 42.8512C50.6945 42.8795 54.0845 43.3607 57.4956 44.2949V50.8766ZM52.0109 29.8858H54.8417C55.4291 29.8858 55.9033 29.4117 55.9033 28.8243C55.9033 28.2369 55.4291 27.7627 54.8417 27.7627H52.0109C51.4235 27.7627 50.9493 28.2369 50.9493 28.8243C50.9493 29.4117 51.4235 29.8858 52.0109 29.8858ZM43.6386 29.8858H47.8212C48.4086 29.8858 48.8828 29.4117 48.8828 28.8243C48.8828 28.2369 48.4086 27.7627 47.8212 27.7627H43.6386C43.0512 27.7627 42.577 28.2369 42.577 28.8243C42.577 29.4117 43.0512 29.8858 43.6386 29.8858ZM36.6252 29.8858H39.456C40.0434 29.8858 40.5176 29.4117 40.5176 28.8243C40.5176 28.2369 40.0434 27.7627 39.456 27.7627H36.6252C36.0378 27.7627 35.5636 28.2369 35.5636 28.8243C35.5636 29.4117 36.0378 29.8858 36.6252 29.8858ZM27.1701 29.8858H30.0009C30.5884 29.8858 31.0625 29.4117 31.0625 28.8243C31.0625 28.2369 30.5884 27.7627 30.0009 27.7627H27.1701C26.5827 27.7627 26.1085 28.2369 26.1085 28.8243C26.1085 29.4117 26.5827 29.8858 27.1701 29.8858ZM18.7978 29.8858H22.9804C23.5678 29.8858 24.042 29.4117 24.042 28.8243C24.042 28.2369 23.5678 27.7627 22.9804 27.7627H18.7978C18.2104 27.7627 17.7363 28.2369 17.7363 28.8243C17.7363 29.4117 18.2104 29.8858 18.7978 29.8858ZM11.7844 29.8858H14.6152C15.2027 29.8858 15.6768 29.4117 15.6768 28.8243C15.6768 28.2369 15.2027 27.7627 14.6152 27.7627H11.7844C11.197 27.7627 10.7228 28.2369 10.7228 28.8243C10.7228 29.4117 11.197 29.8858 11.7844 29.8858ZM11.7844 35.3565H14.6152C15.2027 35.3565 15.6768 34.8823 15.6768 34.2949C15.6768 33.7075 15.2027 33.2333 14.6152 33.2333H11.7844C11.197 33.2333 10.7228 33.7075 10.7228 34.2949C10.7228 34.8823 11.197 35.3565 11.7844 35.3565ZM41.3244 35.3565H46.6676C47.255 35.3565 47.7292 34.8823 47.7292 34.2949C47.7292 33.7075 47.255 33.2333 46.6676 33.2333H41.3244C40.737 33.2333 40.2628 33.7075 40.2628 34.2949C40.2628 34.8823 40.744 35.3565 41.3244 35.3565ZM35.9811 33.2333H30.6379C30.0505 33.2333 29.5763 33.7075 29.5763 34.2949C29.5763 34.8823 30.0505 35.3565 30.6379 35.3565H35.9811C36.5685 35.3565 37.0427 34.8823 37.0427 34.2949C37.0427 33.7075 36.5685 33.2333 35.9811 33.2333ZM18.8969 34.2949C18.8969 34.8823 19.3711 35.3565 19.9585 35.3565H25.3017C25.8891 35.3565 26.3633 34.8823 26.3633 34.2949C26.3633 33.7075 25.8891 33.2333 25.3017 33.2333H19.9585C19.3711 33.2333 18.8969 33.7075 18.8969 34.2949ZM54.8417 33.2333H52.0109C51.4235 33.2333 50.9493 33.7075 50.9493 34.2949C50.9493 34.8823 51.4235 35.3565 52.0109 35.3565H54.8417C55.4291 35.3565 55.9033 34.8823 55.9033 34.2949C55.9033 33.7075 55.4291 33.2333 54.8417 33.2333Z" fill="#021526"/>
<defs>
<linearGradient id="paint0_linear_324_378" x1="11.3184" y1="26.0822" x2="28.8522" y2="78.0949" gradientUnits="userSpaceOnUse">
<stop stop-color="#8C6034"/>
<stop offset="0.14" stop-color="#A9824F"/>
<stop offset="0.46" stop-color="#F2D893"/>
<stop offset="0.51" stop-color="#FFE79F"/>
<stop offset="0.67" stop-color="#E2C07C"/>
<stop offset="1" stop-color="#A67033"/>
</linearGradient>
</defs>
</svg>
