<svg width="43" height="45" viewBox="0 0 43 45" fill="none" xmlns="http://www.w3.org/2000/svg">
<path d="M34.313 3.375L30.938 4.5L32.6255 10.125L34.8755 16.875L24.188 41.0625H27.563L31.5005 39.9375L41.6255 16.875L37.688 6.1875L34.313 3.375Z" fill="url(#paint0_linear_324_408)"/>
<path d="M25.4849 9.65227C25.1626 9.66027 24.8421 9.60152 24.5436 9.47969C24.222 9.31097 23.9455 9.06771 23.7372 8.77025C23.5289 8.47279 23.3948 8.12978 23.3462 7.7699C23.2975 7.41002 23.3358 7.04372 23.4577 6.70165C23.5796 6.35957 23.7816 6.05164 24.0469 5.80362C24.3121 5.5556 24.6329 5.37469 24.9824 5.27601C25.3319 5.17734 25.6999 5.16377 26.0558 5.23644C26.4116 5.30911 26.7448 5.46591 27.0276 5.69372C27.3104 5.92153 27.5346 6.21375 27.6813 6.54592C27.9089 7.10409 27.9089 7.72918 27.6813 8.28736C27.4989 8.71232 27.1905 9.07107 26.7977 9.31515C26.4049 9.55924 25.9467 9.67691 25.4849 9.65227Z" fill="url(#paint1_linear_324_408)"/>
<path d="M20.0254 44.9989C19.0601 44.994 18.1054 44.7966 17.2172 44.4185L4.25835 38.8019C3.40651 38.4366 2.63533 37.9064 1.98921 37.2419C1.3431 36.5773 0.834803 35.7916 0.493591 34.9298C0.152379 34.068 -0.015011 33.1472 0.00105618 32.2205C0.0171234 31.2938 0.216331 30.3794 0.587211 29.5299L10.0004 7.84825C10.3608 7.0024 10.8844 6.23587 11.5413 5.5925C12.1981 4.94912 12.9753 4.4415 13.8284 4.09866L23.1161 0.490278C24.8577 -0.194181 26.7996 -0.160816 28.5167 0.583071C30.2339 1.32696 31.5864 2.72078 32.2783 4.4595L35.9494 13.7315C36.2982 14.5933 36.4709 15.5161 36.4574 16.4457C36.444 17.3753 36.2445 18.2928 35.8709 19.1441L26.4578 40.8101C25.7164 42.5293 24.3225 43.8837 22.5827 44.5753C21.763 44.8704 20.8965 45.0139 20.0254 44.9989ZM3.45823 30.7693C3.05216 31.7251 3.03846 32.8023 3.42009 33.7681C3.80172 34.734 4.54803 35.5108 5.49775 35.9309L18.4723 41.5317C18.9439 41.7367 19.4514 41.8466 19.9656 41.855C20.4798 41.8634 20.9907 41.7701 21.4688 41.5807C21.9468 41.3912 22.3828 41.1091 22.7517 40.7508C23.1205 40.3924 23.415 39.9647 23.6181 39.4922L33.0313 17.8105C33.4228 16.8501 33.4228 15.7745 33.0313 14.814L29.3602 5.52633C28.9759 4.56216 28.2252 3.78959 27.2724 3.3779C26.3196 2.96621 25.2425 2.94896 24.277 3.32992L14.9894 7.00106C14.5091 7.19062 14.0716 7.47424 13.7025 7.83526C13.3334 8.19627 13.0402 8.62741 12.84 9.10334L3.45823 30.7693Z" fill="#021526"/>
<path d="M28.0576 42.8492C27.3147 42.8463 26.5776 42.7191 25.8769 42.4727C25.4969 42.3229 25.1903 42.031 25.0222 41.6587C24.8541 41.2865 24.8378 40.8635 24.9767 40.4794C25.1156 40.0953 25.3988 39.7806 25.7661 39.602C26.1334 39.4235 26.5559 39.3952 26.9437 39.5232C27.7362 39.8076 28.6072 39.7793 29.3796 39.4441C30.152 39.109 30.7676 38.4921 31.1012 37.719L39.4475 18.3435C39.7772 17.5284 39.7772 16.6171 39.4475 15.802L36.2157 7.54976C35.9243 6.81094 35.3782 6.20077 34.6761 5.82958C33.974 5.45838 33.1622 5.35067 32.3876 5.52592C31.9715 5.6133 31.5378 5.53181 31.1818 5.29938C30.8258 5.06694 30.5767 4.70261 30.4893 4.28652C30.4019 3.87043 30.4834 3.43667 30.7159 3.08067C30.9483 2.72466 31.3126 2.47557 31.7287 2.3882C33.2374 2.06086 34.8134 2.2843 36.1716 3.01808C37.5298 3.75187 38.5806 4.94754 39.1337 6.3888L42.4127 14.6096C42.7245 15.3987 42.8767 16.2418 42.8605 17.09C42.8444 17.9383 42.6602 18.775 42.3185 19.5516L33.9565 38.8957C33.4665 40.0585 32.6468 41.0525 31.5986 41.7551C30.5504 42.4576 29.3194 42.838 28.0576 42.8492ZM23.1313 17.4807C23.8735 17.9928 24.4481 18.7126 24.783 19.5498C25.1179 20.3871 25.1982 21.3045 25.014 22.1873L21.1859 21.7009C21.3461 21.4046 21.4067 21.0646 21.3586 20.7312C21.3106 20.3978 21.1565 20.0887 20.9192 19.8496C20.7594 19.6711 20.5609 19.5316 20.3388 19.4417C20.0948 19.3214 19.8264 19.2588 19.5543 19.2588C19.2823 19.2588 19.0139 19.3214 18.7699 19.4417C18.6223 19.5189 18.5019 19.6393 18.4248 19.7869C18.2208 20.2419 18.4248 20.7439 19.0523 21.3558C19.4053 21.6729 19.7831 21.9614 20.1819 22.2186C21.1076 22.8494 21.9327 23.6163 22.6293 24.4935C23.0018 25.0422 23.2214 25.6803 23.2655 26.3421C23.3096 27.0038 23.1767 27.6654 22.8803 28.2588C22.604 28.8415 22.1753 29.3387 21.6395 29.6978C21.1037 30.0568 20.4808 30.2643 19.8367 30.2983C19.0882 30.4153 18.3261 30.4153 17.5776 30.2983L17.0912 31.4279L13.5613 29.859L14.0633 28.7137C13.4771 28.2841 12.9892 27.7344 12.6321 27.1014C12.275 26.4684 12.0569 25.7665 11.9924 25.0426C11.9296 24.6476 11.9296 24.2452 11.9924 23.8503L15.8361 24.3366C15.6833 24.6494 15.639 25.0042 15.71 25.3451C15.781 25.6859 15.9633 25.9934 16.2283 26.2192C16.453 26.4459 16.7194 26.627 17.0128 26.7526C17.3071 26.9239 17.6361 27.0269 17.9755 27.0541C18.3149 27.0812 18.6561 27.0318 18.9739 26.9095C19.1097 26.8494 19.2206 26.7441 19.2876 26.6115C19.4916 26.1251 19.2876 25.6074 18.6915 25.0426L16.9657 23.7247C15.9014 23.046 15.0737 22.0539 14.5967 20.8851C14.3468 19.9696 14.436 18.9946 14.8477 18.1396C15.1146 17.568 15.5224 17.0737 16.0329 16.7032C16.5434 16.3327 17.1397 16.0981 17.7658 16.0216C18.3651 15.9507 18.9707 15.9507 19.57 16.0216L20.0877 14.845L23.602 16.4138L23.1313 17.4807Z" fill="#021526"/>
<defs>
<linearGradient id="paint0_linear_324_408" x1="22.1604" y1="48.0741" x2="59.9558" y2="35.0238" gradientUnits="userSpaceOnUse">
<stop stop-color="#8C6034"/>
<stop offset="0.14" stop-color="#A9824F"/>
<stop offset="0.46" stop-color="#F2D893"/>
<stop offset="0.51" stop-color="#FFE79F"/>
<stop offset="0.67" stop-color="#E2C07C"/>
<stop offset="1" stop-color="#A67033"/>
</linearGradient>
<linearGradient id="paint1_linear_324_408" x1="22.7994" y1="10.4862" x2="29.783" y2="5.20299" gradientUnits="userSpaceOnUse">
<stop stop-color="#8C6034"/>
<stop offset="0.14" stop-color="#A9824F"/>
<stop offset="0.46" stop-color="#F2D893"/>
<stop offset="0.51" stop-color="#FFE79F"/>
<stop offset="0.67" stop-color="#E2C07C"/>
<stop offset="1" stop-color="#A67033"/>
</linearGradient>
</defs>
</svg>
