<svg width="66" height="66" viewBox="0 0 66 66" fill="none" xmlns="http://www.w3.org/2000/svg">
<path d="M47 46.5H51.5V50.5L55.5 51L56 54.5L52 55L51 58.5H47.5V55L43 54.5V50.5H47V46.5Z" fill="url(#paint0_linear_324_238)"/>
<path d="M21.5 52.5L17.5 53L17 55.5H14.5V59.5L17.5 60L17 63L21.5 62.5V60H25V55.5H21.5V52.5Z" fill="url(#paint1_linear_324_238)"/>
<path d="M21.6562 63.9375H17.5312C17.2577 63.9375 16.9954 63.8289 16.802 63.6355C16.6086 63.4421 16.5 63.1798 16.5 62.9062V60.8438H14.4375C14.164 60.8438 13.9017 60.7351 13.7083 60.5417C13.5149 60.3483 13.4062 60.086 13.4062 59.8125V55.6875C13.4062 55.414 13.5149 55.1517 13.7083 54.9583C13.9017 54.7649 14.164 54.6562 14.4375 54.6562H16.5V52.5938C16.5 52.3202 16.6086 52.0579 16.802 51.8645C16.9954 51.6711 17.2577 51.5625 17.5312 51.5625H21.6562C21.9298 51.5625 22.1921 51.6711 22.3855 51.8645C22.5789 52.0579 22.6875 52.3202 22.6875 52.5938V54.6562H24.75C25.0235 54.6562 25.2858 54.7649 25.4792 54.9583C25.6726 55.1517 25.7812 55.414 25.7812 55.6875V59.8125C25.7812 60.086 25.6726 60.3483 25.4792 60.5417C25.2858 60.7351 25.0235 60.8438 24.75 60.8438H22.6875V62.9062C22.6875 63.1798 22.5789 63.4421 22.3855 63.6355C22.1921 63.8289 21.9298 63.9375 21.6562 63.9375ZM18.5625 61.875H20.625V59.8125C20.625 59.539 20.7336 59.2767 20.927 59.0833C21.1204 58.8899 21.3827 58.7812 21.6562 58.7812H23.7188V56.7188H21.6562C21.3827 56.7188 21.1204 56.6101 20.927 56.4167C20.7336 56.2233 20.625 55.961 20.625 55.6875V53.625H18.5625V55.6875C18.5625 55.961 18.4539 56.2233 18.2605 56.4167C18.0671 56.6101 17.8048 56.7188 17.5312 56.7188H15.4688V58.7812H17.5312C17.8048 58.7812 18.0671 58.8899 18.2605 59.0833C18.4539 59.2767 18.5625 59.539 18.5625 59.8125V61.875ZM51.5625 59.8125H47.4375C47.164 59.8125 46.9017 59.7039 46.7083 59.5105C46.5149 59.3171 46.4062 59.0548 46.4062 58.7812V55.6875H43.3125C43.039 55.6875 42.7767 55.5789 42.5833 55.3855C42.3899 55.1921 42.2812 54.9298 42.2812 54.6562V50.5312C42.2812 50.2577 42.3899 49.9954 42.5833 49.802C42.7767 49.6086 43.039 49.5 43.3125 49.5H46.4062V46.4062C46.4062 46.1327 46.5149 45.8704 46.7083 45.677C46.9017 45.4836 47.164 45.375 47.4375 45.375H51.5625C51.836 45.375 52.0983 45.4836 52.2917 45.677C52.4851 45.8704 52.5938 46.1327 52.5938 46.4062V49.5H55.6875C55.961 49.5 56.2233 49.6086 56.4167 49.802C56.6101 49.9954 56.7188 50.2577 56.7188 50.5312V54.6562C56.7188 54.9298 56.6101 55.1921 56.4167 55.3855C56.2233 55.5789 55.961 55.6875 55.6875 55.6875H52.5938V58.7812C52.5938 59.0548 52.4851 59.3171 52.2917 59.5105C52.0983 59.7039 51.836 59.8125 51.5625 59.8125ZM48.4688 57.75H50.5312V54.6562C50.5312 54.3827 50.6399 54.1204 50.8333 53.927C51.0267 53.7336 51.289 53.625 51.5625 53.625H54.6562V51.5625H51.5625C51.289 51.5625 51.0267 51.4539 50.8333 51.2605C50.6399 51.0671 50.5312 50.8048 50.5312 50.5312V47.4375H48.4688V50.5312C48.4688 50.8048 48.3601 51.0671 48.1667 51.2605C47.9733 51.4539 47.711 51.5625 47.4375 51.5625H44.3438V53.625H47.4375C47.711 53.625 47.9733 53.7336 48.1667 53.927C48.3601 54.1204 48.4688 54.3827 48.4688 54.6562V57.75Z" fill="#021526"/>
<path d="M33 66C30.0032 66 28.0397 65.1544 25.2192 62.6453C25.0214 62.4619 24.9034 62.2082 24.8904 61.9387C24.8775 61.6692 24.9706 61.4054 25.15 61.2038C25.3293 61.0022 25.5805 60.879 25.8496 60.8604C26.1188 60.8419 26.3845 60.9296 26.5898 61.1047C29.0317 63.2754 30.525 63.9375 33 63.9375C36.7125 63.9375 38.3151 62.3339 43.6147 57.0219C43.7096 56.9233 43.8233 56.8446 43.9491 56.7904C44.0748 56.7362 44.2101 56.7075 44.347 56.7062C44.4839 56.7048 44.6198 56.7307 44.7466 56.7823C44.8734 56.834 44.9886 56.9104 45.0856 57.0071C45.1825 57.1038 45.2593 57.2188 45.3113 57.3455C45.3633 57.4721 45.3896 57.6079 45.3886 57.7448C45.3876 57.8817 45.3594 58.0171 45.3055 58.143C45.2517 58.2689 45.1733 58.3828 45.0749 58.4781C39.6155 63.9519 37.5715 66 33 66ZM51.0232 43.1929L50.9933 43.4404C50.9621 43.6894 50.8413 43.9185 50.6533 44.0848C50.4654 44.2511 50.2233 44.3432 49.9723 44.3438C49.9289 44.3436 49.8855 44.3408 49.8424 44.3355C49.5711 44.3015 49.3244 44.1612 49.1566 43.9454C48.9887 43.7296 48.9134 43.4559 48.9473 43.1846C49.2684 40.5732 49.4529 37.9468 49.5 35.3162C47.1005 31.0255 43.7337 27.3533 39.667 24.5912C37.3498 23.2741 34.8688 22.2685 32.2884 21.6006C32.2822 21.6006 32.2792 21.6078 32.2719 21.6098C29.8229 22.2743 27.4783 23.2766 25.3058 24.5881C21.393 27.2075 18.332 30.9145 16.5 35.2522C16.5588 39.9613 17.1171 44.6509 18.1655 49.2422C18.2338 49.5069 18.1941 49.788 18.0553 50.0235C17.9165 50.2591 17.6897 50.4298 17.425 50.4982C17.3405 50.5203 17.2535 50.5314 17.1662 50.5312C16.9378 50.531 16.7159 50.4549 16.5355 50.3149C16.355 50.1749 16.2261 49.979 16.169 49.7578C15.5406 47.2207 15.0978 44.6413 14.8438 42.0399C14.788 42.0066 14.7358 41.9675 14.6881 41.9234C14.4241 41.614 14.1467 41.3108 13.8631 40.9953C11.3623 38.2202 8.25 34.7665 8.25 26.8125C8.25 12.4183 21.021 7.11562 23.1124 6.34012C24.5549 3.66656 26.7707 1.49062 29.47 0.0969375C29.6066 0.0331311 29.7555 4.18719e-05 29.9062 0L30.9375 0C31.5181 0.04125 43.4043 1.03125 49.2855 8.65116C54.5119 15.4275 54.682 19.7196 54.6562 20.5631C56.5526 22.93 57.6373 25.8442 57.75 28.875C57.75 39.7629 51.975 42.7711 51.0232 43.1929ZM28.9926 20.5415C25.0284 19.1338 21.6562 17.1414 21.6562 12.375C21.6566 11.2333 21.8043 10.0964 22.0956 8.9925C18.3026 10.7807 10.3125 15.8503 10.3125 26.8125C10.3125 33.1547 12.4297 36.2278 14.5685 38.6842C14.4916 37.4784 14.4479 36.2707 14.4375 35.0625C14.4375 34.9437 14.4581 34.8258 14.4983 34.7139C16.4519 29.8674 19.8326 25.7293 24.1921 22.8484C25.7031 21.9063 27.3129 21.1327 28.9926 20.5415ZM55.6875 28.875C55.6875 18.6275 37.9036 10.3001 37.7242 10.2176C37.4813 10.0998 37.2943 9.8914 37.2033 9.63721C37.1124 9.38303 37.1248 9.10332 37.2378 8.85815C37.3508 8.61298 37.5554 8.42189 37.8077 8.32593C38.06 8.22996 38.3399 8.23676 38.5873 8.34488C43.4938 10.6803 48.0097 13.7602 51.975 17.4756C50.9547 14.7362 49.4949 12.1813 47.653 9.91134C42.3266 3.00712 30.9736 2.06766 30.8591 2.0625H30.1517C29.0462 2.64309 23.7188 5.78737 23.7188 12.375C23.7188 16.6103 27.1219 17.8664 32.6824 19.5649C35.5136 20.2933 38.2345 21.3976 40.7725 22.8484C45.2294 25.8435 48.8936 29.8747 51.4511 34.5964C51.5243 34.7408 51.5625 34.9005 51.5625 35.0625C51.5625 35.1842 51.5573 37.4828 51.2882 40.6313C52.9031 39.3876 55.6875 36.1969 55.6875 28.875Z" fill="#021526"/>
<path d="M25.7811 43.3127C24.7793 43.3781 23.7788 43.1671 22.8887 42.7029C21.9985 42.2386 21.2529 41.5389 20.7332 40.68C20.6094 40.436 20.5876 40.1528 20.6726 39.8928C20.7576 39.6328 20.9424 39.4172 21.1864 39.2934C21.4304 39.1697 21.7135 39.1479 21.9735 39.2329C22.2336 39.3179 22.4492 39.5027 22.5729 39.7467C22.926 40.2596 23.4093 40.6692 23.9731 40.9335C24.537 41.1978 25.161 41.3071 25.7811 41.2502C28.3025 41.2502 29.1946 40.5036 29.2028 40.4964C29.4057 40.3197 29.6687 40.2277 29.9375 40.2396C30.2063 40.2515 30.4602 40.3664 30.6466 40.5603C30.8305 40.7514 30.9323 41.0069 30.9302 41.2721C30.9281 41.5374 30.8222 41.7912 30.6352 41.9793C30.4125 42.2021 29.1327 43.3127 25.7811 43.3127ZM45.2718 40.68C45.392 40.4384 45.412 40.1591 45.3274 39.9028C45.2428 39.6466 45.0605 39.4341 44.8201 39.3115C44.5782 39.1879 44.2975 39.1641 44.0382 39.245C43.7789 39.326 43.5617 39.5054 43.4331 39.7446C43.0802 40.2594 42.596 40.6704 42.0309 40.9351C41.4657 41.1999 40.84 41.3086 40.2186 41.2502C39.0385 41.3637 37.8523 41.109 36.8227 40.5211C36.6282 40.3333 36.3677 40.2293 36.0974 40.2317C35.827 40.234 35.5683 40.3425 35.3771 40.5337C35.1859 40.7249 35.0775 40.9836 35.0751 41.2539C35.0728 41.5243 35.1767 41.7848 35.3645 41.9793C35.5873 42.2021 36.8671 43.3127 40.2186 43.3127C41.2213 43.379 42.2229 43.1685 43.114 42.7042C44.0052 42.2399 44.7516 41.5397 45.2718 40.68ZM30.3671 37.0221C30.4884 36.9616 30.5965 36.8778 30.6853 36.7755C30.7742 36.6732 30.842 36.5544 30.8849 36.4259C30.9278 36.2974 30.945 36.1616 30.9354 36.0265C30.9258 35.8913 30.8897 35.7594 30.8291 35.6382C30.31 34.7783 29.5647 34.0775 28.6745 33.6123C27.7843 33.1472 26.7835 32.9354 25.7811 33.0002C22.4296 33.0002 21.1498 34.1109 20.927 34.3336C20.7401 34.5218 20.6342 34.7756 20.6321 35.0408C20.63 35.306 20.7318 35.5615 20.9157 35.7526C21.1023 35.9464 21.3561 36.0611 21.6248 36.073C21.8935 36.0849 22.1565 35.9931 22.3595 35.8166C22.3677 35.8094 23.2597 35.0627 25.7811 35.0627C26.4012 35.0059 27.0253 35.1152 27.5891 35.3795C28.153 35.6437 28.6363 36.0534 28.9894 36.5663C29.1135 36.8076 29.3278 36.9902 29.5857 37.0745C29.8436 37.1589 30.1244 37.1382 30.3671 37.017V37.0221ZM37.0094 36.5735C37.3612 36.0586 37.8442 35.6471 38.4085 35.3815C38.9727 35.1159 39.5976 35.0058 40.2186 35.0627C41.3987 34.9493 42.585 35.204 43.6145 35.7918C43.809 35.9797 44.0695 36.0836 44.3399 36.0813C44.6103 36.0789 44.869 35.9705 45.0602 35.7793C45.2514 35.5881 45.3598 35.3294 45.3622 35.059C45.3645 34.7886 45.2606 34.5281 45.0727 34.3336C44.85 34.1109 43.5702 33.0002 40.2186 33.0002C39.216 32.9339 38.2144 33.1444 37.3232 33.6087C36.4321 34.073 35.6857 34.7733 35.1655 35.633C35.0453 35.8746 35.0253 36.1539 35.1099 36.4101C35.1945 36.6664 35.3768 36.8789 35.6172 37.0015C35.762 37.0772 35.923 37.1164 36.0864 37.116C36.2754 37.1167 36.4611 37.0662 36.6236 36.9697C36.7861 36.8733 36.9195 36.7346 37.0094 36.5684V36.5735ZM39.0843 52.0237C39.2027 51.7845 39.2225 51.5083 39.1396 51.2546C39.0567 51.0009 38.8776 50.7898 38.6408 50.6666C38.4007 50.5434 38.1223 50.5175 37.8636 50.5944C37.6049 50.6712 37.3857 50.8448 37.2517 51.0791C37.2105 51.1399 36.3401 52.594 32.9999 52.594C29.6597 52.594 28.7893 51.1399 28.7666 51.1018C28.7061 50.9806 28.6223 50.8725 28.52 50.7837C28.4176 50.6948 28.2988 50.627 28.1703 50.5841C28.0418 50.5412 27.9061 50.5241 27.771 50.5336C27.6358 50.5432 27.5039 50.5792 27.3827 50.6398C27.2615 50.7003 27.1534 50.7841 27.0646 50.8864C26.9757 50.9887 26.908 51.1075 26.8651 51.2361C26.8222 51.3646 26.805 51.5003 26.8145 51.6354C26.8241 51.7706 26.8601 51.9025 26.9207 52.0237C27.0558 52.2939 28.3716 54.6565 32.9999 54.6565C37.6281 54.6565 38.944 52.2939 39.0843 52.0237Z" fill="#021526"/>
<defs>
<linearGradient id="paint0_linear_324_238" x1="41.4884" y1="60.7326" x2="60.5598" y2="45.3141" gradientUnits="userSpaceOnUse">
<stop stop-color="#8C6034"/>
<stop offset="0.14" stop-color="#A9824F"/>
<stop offset="0.46" stop-color="#F2D893"/>
<stop offset="0.51" stop-color="#FFE79F"/>
<stop offset="0.67" stop-color="#E2C07C"/>
<stop offset="1" stop-color="#A67033"/>
</linearGradient>
<linearGradient id="paint1_linear_324_238" x1="13.2791" y1="64.9535" x2="29.6395" y2="52.7442" gradientUnits="userSpaceOnUse">
<stop stop-color="#8C6034"/>
<stop offset="0.14" stop-color="#A9824F"/>
<stop offset="0.46" stop-color="#F2D893"/>
<stop offset="0.51" stop-color="#FFE79F"/>
<stop offset="0.67" stop-color="#E2C07C"/>
<stop offset="1" stop-color="#A67033"/>
</linearGradient>
</defs>
</svg>
