<svg width="66" height="66" viewBox="0 0 66 66" fill="none" xmlns="http://www.w3.org/2000/svg">
<g clip-path="url(#clip0_324_286)">
<path d="M25 2.5H41.5L39.5 16.5H25V2.5Z" fill="url(#paint0_linear_324_286)"/>
<path d="M50.8468 63.4357H4.23779C2.4313 63.4357 0.966797 61.9712 0.966797 60.1647V53.5283H65.0332V60.1647C65.0332 61.9712 63.5687 63.4357 61.7622 63.4357H55.3819" stroke="#021526" stroke-width="2" stroke-miterlimit="10" stroke-linecap="round" stroke-linejoin="round"/>
<path d="M27.0695 36.9467C29.3373 37.3554 31.4413 37.6696 33 37.6696C37.4558 37.6696 46.3672 35.1016 50.823 35.1016C57.7192 35.1016 65.0332 37.6696 65.0332 37.6696V53.5283H0.966797V37.6696C0.966797 37.6696 10.0635 35.1016 15.177 35.1016C17.0659 35.1016 19.7555 35.563 22.5671 36.0948" stroke="#021526" stroke-width="2" stroke-miterlimit="10" stroke-linecap="round" stroke-linejoin="round"/>
<path d="M15.1774 35.1014C10.0637 35.1014 0.966797 37.6692 0.966797 37.6692V33.3455C0.966797 31.8413 1.99289 30.5322 3.45288 30.17C6.51905 29.4093 11.7453 28.2526 15.1774 28.2526C19.6324 28.2526 28.5437 30.8205 33 30.8205C37.4563 30.8205 46.3676 28.2526 50.8226 28.2526C55.2871 28.2526 59.9268 29.3288 62.6438 30.0878C64.057 30.4825 65.0332 31.7705 65.0332 33.2378V37.6692C65.0332 37.6692 57.7191 35.1014 50.8226 35.1014C46.3676 35.1014 37.4563 37.6692 33 37.6692M48.766 53.5277V44.1839L46.8104 41.1525M48.766 47.2646L51.9353 44.1839M58.4395 53.5277V44.1839M58.4395 44.1839L56.4839 41.1525M58.4395 44.1839L60.5804 41.1525M7.37086 53.5277V44.1839M7.37086 44.1839L5.41535 41.1525M7.37086 44.1839L9.51173 41.1525M11.9638 46.1562L13.8309 48.0232V53.5277M40.8209 22.3172H25.1791C24.4036 22.3172 23.7748 21.6885 23.7748 20.9128V18.5166C23.7748 17.7411 24.4035 17.1123 25.1791 17.1123H40.821C41.5965 17.1123 42.2253 17.741 42.2253 18.5166V20.9128C42.2252 21.6885 41.5965 22.3172 40.8209 22.3172Z" stroke="#021526" stroke-width="2" stroke-miterlimit="10" stroke-linecap="round" stroke-linejoin="round"/>
<path d="M24.52 2.56543L25.6802 17.1124H40.3198L41.48 2.56543M28.4817 26.5844C30.0381 26.9952 31.5823 27.211 33.1133 27.2212C34.5853 27.2318 36.0522 27.0483 37.4763 26.6754C39.4521 26.1591 40.821 24.3592 40.821 22.3171H25.1791C25.1791 24.3257 26.5396 26.0717 28.4817 26.5844ZM28.4817 26.5844C28.4817 26.5844 26.3116 38.5918 26.7688 45.7243M33.1132 27.2212V45.7243" stroke="#021526" stroke-width="2" stroke-miterlimit="10" stroke-linecap="round" stroke-linejoin="round"/>
<path d="M37.7798 26.584C37.7798 26.584 39.9499 38.5913 39.4927 45.7239" stroke="#021526" stroke-width="2" stroke-miterlimit="10" stroke-linecap="round" stroke-linejoin="round"/>
</g>
<defs>
<linearGradient id="paint0_linear_324_286" x1="23.0814" y1="19.1047" x2="45.6501" y2="-0.745212" gradientUnits="userSpaceOnUse">
<stop stop-color="#8C6034"/>
<stop offset="0.14" stop-color="#A9824F"/>
<stop offset="0.46" stop-color="#F2D893"/>
<stop offset="0.51" stop-color="#FFE79F"/>
<stop offset="0.67" stop-color="#E2C07C"/>
<stop offset="1" stop-color="#A67033"/>
</linearGradient>
<clipPath id="clip0_324_286">
<rect width="66" height="66" fill="white"/>
</clipPath>
</defs>
</svg>
