<svg width="137" height="88" viewBox="0 0 137 88" fill="none" xmlns="http://www.w3.org/2000/svg">
<path d="M68.7155 31.4418C69.1342 32.6054 69.3933 33.8204 69.4859 35.0536C69.5682 36.2925 69.4482 37.5366 69.1307 38.7369C68.8072 39.9384 68.2987 41.0822 67.6235 42.1273C67.2869 42.6537 66.9122 43.1548 66.5026 43.6265C66.0943 44.1012 65.646 44.5398 65.1625 44.9377L65.0368 45.038L64.955 44.8938C63.8509 42.993 62.9922 40.9598 62.3995 38.843C62.1042 37.7808 61.9017 36.6951 61.794 35.5979C61.6937 34.4958 61.7007 33.3866 61.8148 32.2859C62.0581 30.0722 62.7772 27.9373 63.9228 26.0275C64.4902 25.0719 65.1524 24.176 65.8994 23.3532C66.2685 22.9381 66.6663 22.546 67.0757 22.1724C67.4902 21.7916 67.9298 21.4391 68.3915 21.1172L68.5772 20.9892L68.7697 21.1253C70.1456 22.0918 71.334 23.3009 72.2766 24.6933C73.205 26.0875 73.9234 27.6106 74.4089 29.2138L74.372 29.1285C74.372 29.1285 74.41 29.1815 74.4354 29.2115L74.5254 29.3153C74.5899 29.3833 74.6591 29.4514 74.7318 29.5171C74.881 29.6504 75.0385 29.774 75.2034 29.8873C75.5431 30.1198 75.9023 30.3223 76.2771 30.4927C76.6568 30.668 77.0461 30.822 77.443 30.954L78.0472 31.1408L78.6607 31.3022L78.7634 31.3288L78.8279 31.3853C78.8799 31.4288 78.9257 31.4792 78.964 31.5352C79.0477 31.6538 79.1058 31.7885 79.1347 31.9307C79.1687 32.0939 79.1738 32.2617 79.1497 32.4266C79.1045 32.706 79.0116 32.9755 78.8752 33.2235C78.8155 33.3386 78.7493 33.4503 78.6769 33.5579C78.6098 33.6647 78.537 33.7679 78.4589 33.867C78.3851 33.9673 78.3078 34.0653 78.2283 34.1564L78.113 34.2959L78.023 34.4055C77.9335 34.5277 77.8775 34.6711 77.8606 34.8216C77.8436 34.9721 77.8662 35.1244 77.9261 35.2635C77.9569 35.3231 77.9957 35.3782 78.0415 35.4272C78.0983 35.4845 78.1613 35.5351 78.2294 35.5783C78.3027 35.6236 78.3799 35.6622 78.4601 35.6936L78.4924 35.7063L78.5765 35.7432C78.6345 35.7738 78.689 35.8105 78.7392 35.8528C78.8407 35.9386 78.9198 36.0478 78.9698 36.171C79.0128 36.2798 79.0319 36.3966 79.0257 36.5134C79.0196 36.6302 78.9883 36.7443 78.934 36.848L78.9087 36.8953L78.7426 37.2009L78.7011 37.277C78.6908 37.2941 78.6815 37.3118 78.6734 37.33C78.6693 37.3397 78.6662 37.3497 78.6642 37.36C78.6625 37.3815 78.6669 37.4031 78.6769 37.4223C78.6817 37.4309 78.688 37.4387 78.6953 37.4453C78.7011 37.4523 78.6953 37.4453 78.7126 37.4592L78.7818 37.5122C78.8939 37.5913 79.0009 37.6771 79.1024 37.7694C79.2324 37.9 79.3326 38.0572 79.3963 38.2302C79.46 38.4031 79.4856 38.5878 79.4714 38.7715C79.4574 38.9572 79.4027 39.1375 79.3111 39.2997C79.2676 39.3727 79.2316 39.45 79.2039 39.5303C79.151 39.678 79.1347 39.8363 79.1566 39.9916C79.1668 40.063 79.1873 40.1326 79.2177 40.198L79.2419 40.2465L79.2811 40.3191L79.3642 40.4725L79.6859 41.0894L79.7078 41.131L79.7194 41.169C79.7522 41.273 79.7784 41.3789 79.7978 41.4861C79.8174 41.5865 79.8312 41.6868 79.8416 41.7871C79.8612 41.9919 79.8612 42.1981 79.8416 42.4029C79.8226 42.615 79.7784 42.824 79.7101 43.0257C79.6385 43.2336 79.5401 43.4313 79.4172 43.6138L79.4045 43.6334L79.378 43.6622C78.4423 44.7074 77.4038 45.6559 76.2782 46.4933C75.1497 47.3399 73.9226 48.0462 72.6237 48.5968C71.3125 49.1526 69.9257 49.5098 68.5091 49.6566C67.0813 49.799 65.6396 49.6882 64.2504 49.329C61.4723 48.6187 58.9756 46.9765 57.1513 44.7866C56.2328 43.6874 55.4905 42.4522 54.951 41.1252L54.7526 40.6259C54.6915 40.4575 54.6442 40.2799 54.5889 40.1138L54.4366 39.5903L54.3213 39.0736L54.0907 38.0415L53.9385 36.9956L53.8635 36.472L53.8278 35.945C53.8047 35.5933 53.777 35.2416 53.7597 34.8898C53.7712 34.1864 53.7401 33.4795 53.8139 32.7795C53.9083 31.3785 54.1295 29.989 54.4747 28.628L54.7422 27.6109L55.0605 26.611C55.1608 26.2754 55.2912 25.9491 55.4065 25.6227C55.5218 25.2964 55.6371 24.9643 55.7847 24.646C56.3189 23.3587 56.9265 22.1031 57.6045 20.8854C58.9711 18.4673 60.5536 16.1777 62.3326 14.0446C63.2144 12.9768 64.137 11.9439 65.1003 10.946C66.0678 9.94731 67.0469 8.98554 68.1297 8.0699L68.591 7.67781L69.0407 8.08489C69.8999 8.861 70.6794 9.65094 71.4555 10.472C72.2316 11.2931 72.9708 12.1338 73.6939 12.9941C75.1388 14.719 76.476 16.5315 77.6978 18.421C80.138 22.1977 82.1019 26.3493 83.1017 30.7971C83.6107 33.025 83.8324 35.3088 83.7613 37.5929C83.729 38.1638 83.6818 38.7346 83.646 39.3043L83.4015 40.9995L83.3312 41.3997L83.292 41.6222L83.2458 41.8529C83.1801 42.1515 83.1017 42.4364 83.0152 42.7178C82.8403 43.2736 82.6343 43.8191 82.3982 44.3518C82.1676 44.8858 81.8793 45.3897 81.6129 45.896L81.4088 46.2777C81.3419 46.4057 81.2543 46.5222 81.1782 46.6444L80.703 47.3698C78.7373 50.2496 76.0089 52.5256 72.8232 53.943C70.7089 54.8803 68.4434 55.4307 66.1347 55.5678C65.5581 55.5886 64.9815 55.6394 64.4049 55.5944L63.5411 55.5575L63.3255 55.5471L63.111 55.5206L62.682 55.4652L61.8252 55.3499C61.6822 55.3335 61.5404 55.3077 61.4008 55.2726L60.9776 55.1804L60.1346 54.9947C59.8521 54.9336 59.5857 54.8459 59.3101 54.7733C57.1177 54.1486 55.0078 53.2644 53.0251 52.1394C51.0298 51.0053 49.2111 49.5852 47.627 47.9244C46.8375 47.0944 46.1138 46.2041 45.4624 45.2617C45.128 44.8004 44.8328 44.3069 44.5307 43.8214C44.2527 43.3232 43.9541 42.8319 43.7142 42.3153C42.6763 40.2787 41.9579 38.1038 41.4493 35.8966C40.9558 33.6889 40.664 31.4409 40.5775 29.1804C40.5602 28.6153 40.5164 28.0525 40.5487 27.4794L40.5729 26.6237L40.6363 25.7738C40.9029 22.3668 41.7982 19.0386 43.2771 15.9578C44.2667 13.9122 45.4946 11.9907 46.9351 10.2333C48.386 8.48817 50.035 6.91773 51.8489 5.55362C57.3478 1.44046 64.1715 -0.498197 71.0116 0.109371C73.2644 0.302415 75.4844 0.775012 77.6205 1.51627C78.1591 1.68579 78.6792 1.90836 79.2039 2.11248C79.4691 2.2105 79.7217 2.34312 79.98 2.45152C80.2383 2.55992 80.4943 2.68216 80.748 2.8044C81.7602 3.30069 82.7418 3.85714 83.6875 4.47077C85.5852 5.68877 87.3255 7.1362 88.8688 8.78027C89.6429 9.59676 90.3673 10.459 91.038 11.3623L91.5247 12.0542L91.768 12.4002L91.9986 12.7553L92.4507 13.4669C92.5971 13.7067 92.7321 13.9535 92.8727 14.1968C93.9901 16.1476 94.8572 18.2313 95.4536 20.3987C96.0626 22.5587 96.3997 24.7862 96.4569 27.0296C96.5927 31.51 95.6332 35.9558 93.6618 39.9813C91.6904 44.0069 88.7666 47.4907 85.144 50.1305C88.6798 47.4277 91.5144 43.9149 93.409 39.8878C95.2959 35.8775 96.1807 31.469 95.9875 27.0412C95.8981 24.8408 95.5343 22.6601 94.9047 20.5498C94.2892 18.4395 93.4105 16.4151 92.2892 14.5244C92.1485 14.2937 92.0136 14.0504 91.8672 13.8186L91.4151 13.1267L91.1845 12.7807L90.9423 12.4486L90.458 11.7844C89.7913 10.9151 89.0755 10.0845 88.3141 9.29691C86.7993 7.71567 85.0951 6.32749 83.2401 5.16384C82.3161 4.57861 81.358 4.04912 80.3709 3.57819C80.1253 3.46287 79.8727 3.35678 79.6236 3.24492C79.3746 3.13306 79.1266 3.01428 78.8695 2.92433C78.3574 2.7329 77.8535 2.52302 77.3299 2.36387C75.2581 1.67083 73.1082 1.23776 70.9297 1.0746C68.7537 0.914337 66.5666 1.00644 64.4118 1.34906C60.0998 2.06591 56.026 3.81826 52.5401 6.45572C49.0542 9.09318 46.2603 12.537 44.398 16.4917C43.4784 18.4587 42.7937 20.5272 42.358 22.6544C42.1506 23.7191 42.0051 24.7949 41.9221 25.8764L41.8645 26.6837L41.846 27.4909C41.8172 28.0283 41.8622 28.5749 41.8806 29.1181C41.9749 31.298 42.2667 33.4649 42.7524 35.5921C43.2495 37.706 43.9483 39.7736 44.9354 41.6937C45.1661 42.1804 45.4486 42.6416 45.7127 43.111C45.9998 43.5665 46.2789 44.0278 46.5972 44.4625C47.2124 45.3445 47.8957 46.1769 48.6407 46.9523C50.1312 48.5087 51.8405 49.8396 53.7147 50.9032C55.6008 51.9684 57.6074 52.8046 59.6918 53.3941C59.9535 53.4633 60.2153 53.5486 60.4759 53.604L61.259 53.7746L61.6499 53.86C61.7793 53.8923 61.9106 53.9162 62.0431 53.9315L62.8377 54.0329L63.2344 54.0837L63.4339 54.1091L63.6334 54.1171L64.4337 54.1494C64.9665 54.1921 65.4993 54.1413 66.0332 54.1229C68.1682 53.9921 70.2625 53.4797 72.2167 52.6099C75.1548 51.2987 77.6703 49.1961 79.4818 46.5371L79.9177 45.8683C79.9881 45.753 80.0699 45.6492 80.1311 45.5304L80.3179 45.1775C80.5612 44.7047 80.8345 44.2446 81.0398 43.7533C81.2543 43.2713 81.4417 42.7778 81.6014 42.2749C81.6786 42.0258 81.7478 41.7756 81.802 41.5311L81.839 41.3512L81.8724 41.1644L81.9473 40.7446L82.178 39.1428C82.2172 38.6066 82.2622 38.0704 82.2933 37.5284C82.3633 35.3686 82.1563 33.2088 81.6775 31.1016C80.7342 26.8682 78.8545 22.8562 76.4881 19.1833C75.3006 17.3411 74.0008 15.5737 72.5961 13.8912C71.8926 13.0502 71.1661 12.2291 70.4165 11.428C69.6704 10.6346 68.8885 9.84237 68.1009 9.12854L69.0119 9.14353C68.0098 9.99228 67.0215 10.9402 66.0839 11.902C65.1464 12.8637 64.2388 13.8716 63.3728 14.9072C61.6395 16.9702 60.0956 19.1853 58.76 21.5254C58.1018 22.6942 57.5111 23.8997 56.991 25.1361C56.8526 25.4417 56.7476 25.7588 56.6243 26.0702C56.5009 26.3815 56.3832 26.6941 56.2864 27.0135L55.9773 27.966L55.719 28.9324C55.3847 30.2201 55.1686 31.5356 55.0732 32.8625C54.9994 33.5245 55.0282 34.1875 55.0132 34.8506L55.0721 35.8424L55.1032 36.3383L55.1724 36.8307L55.3096 37.8132L55.5218 38.7842L55.629 39.2685L55.7697 39.7298C55.8182 39.8843 55.8585 40.0423 55.9127 40.1911L56.0903 40.6455C56.5727 41.8597 57.2411 42.9915 58.0715 44.0001C59.7264 46.0205 62.0085 47.545 64.5294 48.2104C65.7918 48.5482 67.1042 48.6591 68.4053 48.538C69.714 48.4129 70.9967 48.093 72.2109 47.5889C74.6557 46.581 76.8318 44.9365 78.6319 42.9692L78.5927 43.0176C78.6657 42.9104 78.7243 42.7941 78.7668 42.6716C78.8124 42.5443 78.8419 42.4118 78.8545 42.2772C78.8683 42.1357 78.8683 41.9932 78.8545 41.8517C78.8423 41.7146 78.8183 41.5788 78.783 41.4458L78.8164 41.5254L78.4901 40.9107L78.4082 40.7573L78.3655 40.6777L78.3136 40.5693C78.2493 40.4222 78.2051 40.267 78.1821 40.1081C78.1418 39.8009 78.1754 39.4886 78.2802 39.197C78.3285 39.06 78.3899 38.9279 78.4635 38.8026C78.4871 38.7624 78.5017 38.7176 78.5062 38.6712C78.511 38.6229 78.5052 38.5742 78.4893 38.5284C78.4733 38.4826 78.4476 38.4408 78.4139 38.4059C78.4059 38.391 78.2744 38.2906 78.1914 38.2295L78.1222 38.1765C78.0813 38.1455 78.0428 38.1115 78.0069 38.075C77.9327 37.9995 77.8704 37.9132 77.8223 37.819C77.7273 37.629 77.6923 37.4146 77.722 37.2043C77.7373 37.0997 77.7688 36.9982 77.8154 36.9033C77.842 36.8491 77.8546 36.8272 77.8685 36.803L77.9111 36.7269L78.0807 36.4224C78.0862 36.4135 78.0912 36.4043 78.0957 36.3948C78.0957 36.3948 78.0957 36.3948 78.0957 36.404C78.0927 36.4126 78.0904 36.4215 78.0887 36.4305C78.0877 36.4482 78.0904 36.4659 78.0968 36.4824C78.1025 36.497 78.1121 36.5097 78.1245 36.5193C78.1299 36.5242 78.1362 36.5281 78.1429 36.5308C78.1429 36.5308 78.1522 36.5308 78.1429 36.5308L78.0933 36.5112C77.9596 36.4572 77.8314 36.3904 77.7105 36.3117C77.5844 36.2289 77.4683 36.1318 77.3645 36.0223C77.2518 35.9011 77.1587 35.763 77.0889 35.6129C76.9613 35.325 76.9136 35.008 76.9509 34.6952C76.9883 34.3825 77.1092 34.0856 77.3011 33.8358L77.4337 33.679L77.541 33.5556C77.6148 33.4737 77.6828 33.3895 77.7463 33.3042C77.8131 33.2221 77.8751 33.1363 77.9319 33.047C77.9904 32.963 78.0439 32.8756 78.0922 32.7853C78.1828 32.6277 78.2467 32.4562 78.2813 32.2778C78.2912 32.2129 78.2912 32.1468 78.2813 32.0818C78.2767 32.0605 78.2701 32.0397 78.2617 32.0195C78.2617 32.0092 78.2537 32.0068 78.2514 31.9999C78.249 31.993 78.234 31.9838 78.2744 32.0195L78.4416 32.1026L77.797 31.925L77.157 31.7209C76.7316 31.5726 76.3147 31.4013 75.908 31.2077C75.4929 31.0124 75.0958 30.7808 74.7214 30.5158C74.5301 30.3801 74.3471 30.233 74.1736 30.0752C74.086 29.9945 74.0007 29.9092 73.9176 29.8181L73.7954 29.6739C73.7496 29.6165 73.7073 29.5564 73.6685 29.494L73.6455 29.4571L73.6305 29.4075C73.1841 27.873 72.5146 26.4125 71.6435 25.0727C70.7688 23.7537 69.6651 22.6019 68.3846 21.6719L68.7628 21.68C67.8898 22.2869 67.0865 22.9885 66.3676 23.7719C65.6354 24.5545 64.9837 25.4087 64.4222 26.3216C63.289 28.1499 62.5637 30.2012 62.2957 32.3355C62.169 33.404 62.1466 34.4824 62.2288 35.5552C62.3174 36.6307 62.4995 37.6965 62.7731 38.7404C63.3273 40.8382 64.1449 42.8573 65.2064 44.7497L64.9988 44.7059C65.4706 44.3264 65.9089 43.907 66.3088 43.4523C66.7187 43.0001 67.0952 42.5187 67.4355 42.012C68.121 40.9959 68.6443 39.8793 68.9865 38.7023C69.3246 37.5202 69.4679 36.291 69.4109 35.0628C69.344 33.8299 69.11 32.6118 68.7155 31.4418Z" fill="url(#paint0_linear_124_662)"/>
<path d="M5.3174 66.1876C4.74373 66.1745 4.17682 66.3134 3.67409 66.59C3.21238 66.8524 2.81428 67.2135 2.50821 67.6475C2.19085 68.1013 1.95334 68.606 1.80591 69.1397C1.64723 69.6987 1.56727 70.277 1.56835 70.858C1.5666 71.4386 1.6442 72.0167 1.79899 72.5763C1.94122 73.1139 2.17869 73.6216 2.50013 74.0754C2.80998 74.5083 3.21014 74.8687 3.67294 75.1318C4.17546 75.4089 4.74252 75.5478 5.31625 75.5342C5.88125 75.5483 6.44169 75.4298 6.95264 75.1883C7.40233 74.9679 7.79443 74.6457 8.09776 74.2473C8.40509 73.8383 8.62777 73.3722 8.75278 72.8761C8.89045 72.342 8.95026 71.7909 8.93037 71.2397L6.11195 71.2201V70.8107H10.3396C10.3369 71.2627 10.3026 71.7139 10.2369 72.1611C10.1795 72.6051 10.0531 73.0374 9.86215 73.4423C9.49343 74.1836 8.9147 74.8001 8.19809 75.2148C7.46235 75.6522 6.50327 75.8706 5.32086 75.8698C4.52548 75.8859 3.73518 75.7395 2.99832 75.4397C2.36828 75.1817 1.79969 74.7939 1.32964 74.3015C0.892306 73.8358 0.553425 73.2867 0.333276 72.687C0.113509 72.0966 0.000653811 71.4718 0 70.8419C0.00084141 70.2125 0.111275 69.5882 0.326354 68.9967C0.543387 68.3955 0.882641 67.8458 1.32272 67.3823C1.79274 66.8924 2.35887 66.5049 2.98563 66.2441C3.7253 65.9427 4.5189 65.7963 5.3174 65.8139C5.82712 65.8102 6.33545 65.8675 6.83155 65.9846C7.27268 66.0901 7.69884 66.2505 8.10007 66.462C8.46796 66.6557 8.80748 66.8989 9.10911 67.1851C9.39776 67.4592 9.65006 67.7693 9.85985 68.1076L9.50466 68.3256C9.29923 67.9752 9.03918 67.6599 8.73433 67.3915C8.43101 67.1204 8.09188 66.8922 7.72643 66.7134C7.35976 66.5346 6.97244 66.4018 6.57323 66.3179C6.16031 66.2307 5.73941 66.1871 5.3174 66.1876Z" fill="url(#paint1_linear_124_662)"/>
<path d="M16.7307 75.6241V66.0237H18.0811V75.6241H16.7307Z" fill="url(#paint2_linear_124_662)"/>
<path d="M24.7764 75.6241V66.0237H26.1118V75.2424H31.7036V75.6241H24.7764Z" fill="url(#paint3_linear_124_662)"/>
<path d="M41.9163 66.0237C42.5846 66.0093 43.2472 66.1494 43.8525 66.4331C44.388 66.6912 44.8622 67.0608 45.2433 67.5171C45.6181 67.9718 45.9009 68.4951 46.0759 69.0578C46.2574 69.6293 46.3527 70.2248 46.3584 70.8245C46.3631 71.4215 46.2712 72.0154 46.0863 72.5831C45.9074 73.1421 45.625 73.6624 45.2537 74.1169C44.8758 74.5753 44.4038 74.9474 43.8698 75.2078C43.2614 75.4973 42.5934 75.6399 41.9198 75.6241H37.1917V66.0237H41.9163ZM41.0433 66.4596H38.5167V75.187H41.0387C41.6194 75.218 42.1987 75.103 42.7235 74.8526C43.1865 74.623 43.5935 74.2947 43.916 73.8908C44.2393 73.4811 44.4822 73.0139 44.6321 72.5139C44.7911 71.9969 44.8716 71.4588 44.8708 70.9179C44.8709 70.3728 44.7904 69.8307 44.6321 69.3092C44.481 68.7978 44.2358 68.3191 43.909 67.8977C43.5824 67.4811 43.1743 67.1354 42.7097 66.8817C42.196 66.6097 41.6246 66.465 41.0433 66.4596Z" fill="url(#paint4_linear_124_662)"/>
<path d="M58.9619 66.0237V66.5565H53.3839V70.2467H57.2298V70.7783H53.3839V75.0878H58.9619V75.6195H52.0347V66.0237H58.9619Z" fill="url(#paint5_linear_124_662)"/>
<path d="M70.0475 66.0237C70.7158 66.0093 71.3784 66.1494 71.9837 66.4331C72.5192 66.6912 72.9934 67.0608 73.3744 67.5171C73.7493 67.9718 74.0321 68.4951 74.207 69.0578C74.3874 69.6295 74.4815 70.225 74.4861 70.8245C74.4911 71.4216 74.3988 72.0156 74.2128 72.5831C74.0344 73.142 73.7523 73.6623 73.3814 74.1169C73.0035 74.5753 72.5315 74.9474 71.9975 75.2078C71.389 75.4973 70.7211 75.6399 70.0475 75.6241H65.3193V66.0237H70.0475ZM69.1745 66.4596H66.6547V75.187H69.1768C69.7575 75.218 70.3367 75.103 70.8616 74.8526C71.3244 74.6227 71.7313 74.2944 72.054 73.8908C72.376 73.4811 72.6178 73.0144 72.7667 72.5151C72.9258 71.998 73.0062 71.46 73.0054 70.919C73.0055 70.374 72.925 69.8319 72.7667 69.3103C72.6156 68.7989 72.3704 68.3202 72.0436 67.8988C71.717 67.4822 71.3089 67.1366 70.8443 66.8828C70.3297 66.6099 69.757 66.4648 69.1745 66.4596Z" fill="url(#paint6_linear_124_662)"/>
<path d="M88.238 75.6241V66.0237H89.5746V75.2424H95.1653V75.6241H88.238Z" fill="url(#paint7_linear_124_662)"/>
<path d="M108.078 66.0237V66.5565H102.501V70.2467H106.347V70.7783H102.501V75.0878H108.078V75.6195H101.152V66.0237H108.078Z" fill="url(#paint8_linear_124_662)"/>
<path d="M118.387 66.0237H119.587L124.06 75.6241H122.492L121.401 73.2243H115.666L114.561 75.6241H113.984L118.387 66.0237ZM115.906 72.7053H121.155L118.549 66.9647L115.906 72.7053Z" fill="url(#paint9_linear_124_662)"/>
<path d="M137 66.0237V66.5565H131.191V70.2467H135.255V70.7783H131.191V75.6218H129.841V66.0237H137Z" fill="url(#paint10_linear_124_662)"/>
<path d="M51.4418 83.3863L49.7847 85.8253H49.6578L47.9938 83.3552V87.178H47.5498V82.7324H48.0953L49.7213 85.1841L51.3277 82.7324H51.887V87.178H51.4418V83.3863Z" fill="url(#paint11_linear_124_662)"/>
<path d="M59.3552 87.178H56.1677V82.7324H59.2975V83.1522H56.6117V84.7459H59.1776V85.1588H56.6117V86.7559H59.3552V87.178Z" fill="url(#paint12_linear_124_662)"/>
<path d="M64.9436 82.7324C66.4485 82.7324 67.1727 83.8118 67.1727 84.9108C67.1727 86.0352 66.4993 87.178 64.9436 87.178H63.3752V82.7324H64.9436ZM63.8204 86.7686H64.9436C66.1821 86.7686 66.7414 85.8034 66.7218 84.9085C66.7022 84.0448 66.1452 83.1557 64.9436 83.1557H63.8204V86.7686Z" fill="url(#paint13_linear_124_662)"/>
<path d="M73.9488 83.6424C73.6882 83.2238 73.1416 83.0842 72.6722 83.0773C72.1268 83.0773 71.421 83.2365 71.421 83.8903C71.421 84.4104 71.9976 84.5511 72.6895 84.671C73.566 84.8232 74.4551 85.017 74.4551 85.9672C74.4482 86.9705 73.4829 87.2427 72.6768 87.2427C71.9273 87.2427 71.1662 86.9705 70.8225 86.259L71.21 86.0491C71.5144 86.6257 72.1325 86.8171 72.6768 86.8171C73.2212 86.8171 74.0042 86.6718 74.0042 85.9603C74.0111 85.3572 73.3376 85.205 72.6457 85.0839C71.8073 84.9386 70.9817 84.7541 70.9817 83.8903C70.969 82.9562 71.9215 82.6587 72.6711 82.6587C73.28 82.6587 73.9396 82.8236 74.3282 83.4325L73.9488 83.6424Z" fill="url(#paint14_linear_124_662)"/>
<path d="M78.858 85.6985V87.178H78.4175V82.7324H80.4044C82.3926 82.7324 82.3926 85.6915 80.4044 85.6985H78.858ZM78.858 85.2787H80.401C81.7917 85.2787 81.7917 83.1522 80.401 83.1522H78.858V85.2787Z" fill="url(#paint15_linear_124_662)"/>
<path d="M88.5229 86.1494H85.9455L85.4843 87.178H85.0149L87.0088 82.7324H87.4528L89.4466 87.178H88.9773L88.5229 86.1494ZM86.1231 85.7423H88.3453L87.2336 83.2156L86.1231 85.7423Z" fill="url(#paint16_linear_124_662)"/>
<path d="M44.1305 85.6385V84.272L13.1694 84.9547L44.1305 85.6385Z" fill="url(#paint17_linear_124_662)"/>
<path d="M92.8694 84.272V85.6385L123.83 84.9547L92.8694 84.272Z" fill="url(#paint18_linear_124_662)"/>
<defs>
<linearGradient id="paint0_linear_124_662" x1="44.1397" y1="4.23782" x2="139.486" y2="99.5854" gradientUnits="userSpaceOnUse">
<stop stop-color="#8C6034"/>
<stop offset="0.14" stop-color="#A9824F"/>
<stop offset="0.46" stop-color="#F2D893"/>
<stop offset="0.51" stop-color="#FFE79F"/>
<stop offset="0.67" stop-color="#E2C07C"/>
<stop offset="1" stop-color="#A67033"/>
</linearGradient>
<linearGradient id="paint1_linear_124_662" x1="-5.18017" y1="70.8384" x2="357.321" y2="70.8384" gradientUnits="userSpaceOnUse">
<stop stop-color="#8C6034"/>
<stop offset="0.14" stop-color="#A9824F"/>
<stop offset="0.46" stop-color="#F2D893"/>
<stop offset="0.51" stop-color="#FFE79F"/>
<stop offset="0.67" stop-color="#E2C07C"/>
<stop offset="1" stop-color="#A67033"/>
</linearGradient>
<linearGradient id="paint2_linear_124_662" x1="-5.18005" y1="70.8245" x2="357.321" y2="70.8245" gradientUnits="userSpaceOnUse">
<stop stop-color="#8C6034"/>
<stop offset="0.14" stop-color="#A9824F"/>
<stop offset="0.46" stop-color="#F2D893"/>
<stop offset="0.51" stop-color="#FFE79F"/>
<stop offset="0.67" stop-color="#E2C07C"/>
<stop offset="1" stop-color="#A67033"/>
</linearGradient>
<linearGradient id="paint3_linear_124_662" x1="-5.18028" y1="70.8245" x2="357.321" y2="70.8245" gradientUnits="userSpaceOnUse">
<stop stop-color="#8C6034"/>
<stop offset="0.14" stop-color="#A9824F"/>
<stop offset="0.46" stop-color="#F2D893"/>
<stop offset="0.51" stop-color="#FFE79F"/>
<stop offset="0.67" stop-color="#E2C07C"/>
<stop offset="1" stop-color="#A67033"/>
</linearGradient>
<linearGradient id="paint4_linear_124_662" x1="-5.18032" y1="70.8245" x2="357.321" y2="70.8245" gradientUnits="userSpaceOnUse">
<stop stop-color="#8C6034"/>
<stop offset="0.14" stop-color="#A9824F"/>
<stop offset="0.46" stop-color="#F2D893"/>
<stop offset="0.51" stop-color="#FFE79F"/>
<stop offset="0.67" stop-color="#E2C07C"/>
<stop offset="1" stop-color="#A67033"/>
</linearGradient>
<linearGradient id="paint5_linear_124_662" x1="-5.18014" y1="70.8245" x2="357.321" y2="70.8245" gradientUnits="userSpaceOnUse">
<stop stop-color="#8C6034"/>
<stop offset="0.14" stop-color="#A9824F"/>
<stop offset="0.46" stop-color="#F2D893"/>
<stop offset="0.51" stop-color="#FFE79F"/>
<stop offset="0.67" stop-color="#E2C07C"/>
<stop offset="1" stop-color="#A67033"/>
</linearGradient>
<linearGradient id="paint6_linear_124_662" x1="-5.18031" y1="70.8245" x2="357.321" y2="70.8245" gradientUnits="userSpaceOnUse">
<stop stop-color="#8C6034"/>
<stop offset="0.14" stop-color="#A9824F"/>
<stop offset="0.46" stop-color="#F2D893"/>
<stop offset="0.51" stop-color="#FFE79F"/>
<stop offset="0.67" stop-color="#E2C07C"/>
<stop offset="1" stop-color="#A67033"/>
</linearGradient>
<linearGradient id="paint7_linear_124_662" x1="-5.18019" y1="70.8245" x2="357.321" y2="70.8245" gradientUnits="userSpaceOnUse">
<stop stop-color="#8C6034"/>
<stop offset="0.14" stop-color="#A9824F"/>
<stop offset="0.46" stop-color="#F2D893"/>
<stop offset="0.51" stop-color="#FFE79F"/>
<stop offset="0.67" stop-color="#E2C07C"/>
<stop offset="1" stop-color="#A67033"/>
</linearGradient>
<linearGradient id="paint8_linear_124_662" x1="-5.1801" y1="70.8245" x2="357.321" y2="70.8245" gradientUnits="userSpaceOnUse">
<stop stop-color="#8C6034"/>
<stop offset="0.14" stop-color="#A9824F"/>
<stop offset="0.46" stop-color="#F2D893"/>
<stop offset="0.51" stop-color="#FFE79F"/>
<stop offset="0.67" stop-color="#E2C07C"/>
<stop offset="1" stop-color="#A67033"/>
</linearGradient>
<linearGradient id="paint9_linear_124_662" x1="-5.18024" y1="70.8245" x2="357.321" y2="70.8245" gradientUnits="userSpaceOnUse">
<stop stop-color="#8C6034"/>
<stop offset="0.14" stop-color="#A9824F"/>
<stop offset="0.46" stop-color="#F2D893"/>
<stop offset="0.51" stop-color="#FFE79F"/>
<stop offset="0.67" stop-color="#E2C07C"/>
<stop offset="1" stop-color="#A67033"/>
</linearGradient>
<linearGradient id="paint10_linear_124_662" x1="-5.17996" y1="70.8245" x2="357.321" y2="70.8245" gradientUnits="userSpaceOnUse">
<stop stop-color="#8C6034"/>
<stop offset="0.14" stop-color="#A9824F"/>
<stop offset="0.46" stop-color="#F2D893"/>
<stop offset="0.51" stop-color="#FFE79F"/>
<stop offset="0.67" stop-color="#E2C07C"/>
<stop offset="1" stop-color="#A67033"/>
</linearGradient>
<linearGradient id="paint11_linear_124_662" x1="-5.18018" y1="84.9558" x2="357.321" y2="84.9558" gradientUnits="userSpaceOnUse">
<stop stop-color="#8C6034"/>
<stop offset="0.14" stop-color="#A9824F"/>
<stop offset="0.46" stop-color="#F2D893"/>
<stop offset="0.51" stop-color="#FFE79F"/>
<stop offset="0.67" stop-color="#E2C07C"/>
<stop offset="1" stop-color="#A67033"/>
</linearGradient>
<linearGradient id="paint12_linear_124_662" x1="-5.18017" y1="84.9558" x2="357.321" y2="84.9558" gradientUnits="userSpaceOnUse">
<stop stop-color="#8C6034"/>
<stop offset="0.14" stop-color="#A9824F"/>
<stop offset="0.46" stop-color="#F2D893"/>
<stop offset="0.51" stop-color="#FFE79F"/>
<stop offset="0.67" stop-color="#E2C07C"/>
<stop offset="1" stop-color="#A67033"/>
</linearGradient>
<linearGradient id="paint13_linear_124_662" x1="-5.1801" y1="84.9558" x2="357.321" y2="84.9558" gradientUnits="userSpaceOnUse">
<stop stop-color="#8C6034"/>
<stop offset="0.14" stop-color="#A9824F"/>
<stop offset="0.46" stop-color="#F2D893"/>
<stop offset="0.51" stop-color="#FFE79F"/>
<stop offset="0.67" stop-color="#E2C07C"/>
<stop offset="1" stop-color="#A67033"/>
</linearGradient>
<linearGradient id="paint14_linear_124_662" x1="-5.1802" y1="84.9559" x2="357.321" y2="84.9559" gradientUnits="userSpaceOnUse">
<stop stop-color="#8C6034"/>
<stop offset="0.14" stop-color="#A9824F"/>
<stop offset="0.46" stop-color="#F2D893"/>
<stop offset="0.51" stop-color="#FFE79F"/>
<stop offset="0.67" stop-color="#E2C07C"/>
<stop offset="1" stop-color="#A67033"/>
</linearGradient>
<linearGradient id="paint15_linear_124_662" x1="-5.18015" y1="84.9558" x2="357.321" y2="84.9558" gradientUnits="userSpaceOnUse">
<stop stop-color="#8C6034"/>
<stop offset="0.14" stop-color="#A9824F"/>
<stop offset="0.46" stop-color="#F2D893"/>
<stop offset="0.51" stop-color="#FFE79F"/>
<stop offset="0.67" stop-color="#E2C07C"/>
<stop offset="1" stop-color="#A67033"/>
</linearGradient>
<linearGradient id="paint16_linear_124_662" x1="-5.18035" y1="84.9558" x2="357.321" y2="84.9558" gradientUnits="userSpaceOnUse">
<stop stop-color="#8C6034"/>
<stop offset="0.14" stop-color="#A9824F"/>
<stop offset="0.46" stop-color="#F2D893"/>
<stop offset="0.51" stop-color="#FFE79F"/>
<stop offset="0.67" stop-color="#E2C07C"/>
<stop offset="1" stop-color="#A67033"/>
</linearGradient>
<linearGradient id="paint17_linear_124_662" x1="-5.18026" y1="84.9547" x2="357.321" y2="84.9547" gradientUnits="userSpaceOnUse">
<stop stop-color="#8C6034"/>
<stop offset="0.14" stop-color="#A9824F"/>
<stop offset="0.46" stop-color="#F2D893"/>
<stop offset="0.51" stop-color="#FFE79F"/>
<stop offset="0.67" stop-color="#E2C07C"/>
<stop offset="1" stop-color="#A67033"/>
</linearGradient>
<linearGradient id="paint18_linear_124_662" x1="-5.18022" y1="84.9547" x2="357.321" y2="84.9547" gradientUnits="userSpaceOnUse">
<stop stop-color="#8C6034"/>
<stop offset="0.14" stop-color="#A9824F"/>
<stop offset="0.46" stop-color="#F2D893"/>
<stop offset="0.51" stop-color="#FFE79F"/>
<stop offset="0.67" stop-color="#E2C07C"/>
<stop offset="1" stop-color="#A67033"/>
</linearGradient>
</defs>
</svg>
