<svg width="8" height="16" viewBox="0 0 8 16" fill="none" xmlns="http://www.w3.org/2000/svg">
<path d="M7.69408 0.352184C7.88996 0.577756 8 0.883656 8 1.20261C8 1.52157 7.88996 1.82747 7.69408 2.05305L2.52205 8.00726L7.69408 13.9615C7.88441 14.1883 7.98972 14.4922 7.98734 14.8076C7.98496 15.123 7.87508 15.4247 7.68135 15.6477C7.48763 15.8707 7.22557 15.9972 6.95161 16C6.67765 16.0027 6.41372 15.8815 6.21666 15.6623L0.305919 8.85769C0.110039 8.63212 3.63951e-07 8.32622 3.50009e-07 8.00726C3.36066e-07 7.6883 0.110039 7.3824 0.305919 7.15683L6.21666 0.352184C6.4126 0.126681 6.67831 -2.91918e-07 6.95537 -3.04029e-07C7.23243 -3.16139e-07 7.49814 0.126681 7.69408 0.352184Z" fill="#595758"/>
</svg>
