<svg width="8" height="16" viewBox="0 0 8 16" fill="none" xmlns="http://www.w3.org/2000/svg">
<path d="M0.30592 0.352184C0.11004 0.577756 9.15048e-07 0.883656 9.01106e-07 1.20261C8.87164e-07 1.52157 0.11004 1.82747 0.30592 2.05305L5.47795 8.00726L0.30592 13.9615C0.115591 14.1883 0.0102752 14.4922 0.012656 14.8076C0.0150364 15.123 0.124923 15.4247 0.318647 15.6477C0.512371 15.8707 0.774434 15.9972 1.04839 16C1.32235 16.0027 1.58628 15.8815 1.78334 15.6623L7.69408 8.85769C7.88996 8.63212 8 8.32622 8 8.00726C8 7.6883 7.88996 7.3824 7.69408 7.15683L1.78334 0.352184C1.5874 0.126681 1.32169 -2.91918e-07 1.04463 -3.04029e-07C0.767573 -3.16139e-07 0.501859 0.126681 0.30592 0.352184Z" fill="#595758"/>
</svg>
