<svg width="24" height="24" viewBox="0 0 24 24" fill="none" xmlns="http://www.w3.org/2000/svg">
<g clip-path="url(#clip0_1626_1338)">
<path d="M12 24C18.6274 24 24 18.6274 24 12C24 5.37258 18.6274 0 12 0C5.37258 0 0 5.37258 0 12C0 18.6274 5.37258 24 12 24Z" fill="#EE4343"/>
<path d="M14.5242 23.7171C14.7543 23.6725 14.9831 23.6211 15.2102 23.5631C15.5953 23.4555 15.9748 23.3286 16.3472 23.1831C16.7201 23.0388 17.0856 22.8759 17.4422 22.6951C17.7989 22.5136 18.1464 22.3143 18.4832 22.0981C18.8196 21.8818 19.145 21.6489 19.4582 21.4001C19.7719 21.151 20.073 20.8863 20.3602 20.6071C20.647 20.3286 20.9196 20.0359 21.1772 19.7301C21.435 19.4241 21.6773 19.1053 21.9032 18.7751C22.1291 18.4454 22.3383 18.1047 22.5302 17.7541C22.7221 17.403 22.8963 17.0426 23.0522 16.6741C23.2082 16.3055 23.3457 15.9294 23.4642 15.5471C23.5656 15.2124 23.6524 14.8734 23.7242 14.5311L16.5942 7.4021C15.9921 6.7973 15.2763 6.31755 14.488 5.99044C13.6998 5.66334 12.8546 5.49533 12.0012 5.4961C11.147 5.49517 10.301 5.66307 9.51196 5.99017C8.72287 6.31727 8.00622 6.79711 7.4032 7.4021C6.79866 8.00531 6.31904 8.72183 5.99179 9.51065C5.66454 10.2995 5.49609 11.1451 5.49609 11.9991C5.49609 12.8531 5.66454 13.6987 5.99179 14.4875C6.31904 15.2764 6.79866 15.9929 7.4032 16.5961L14.5242 23.7171Z" fill="#C50101"/>
<path d="M12.0012 5.4961C13.6632 5.4961 15.3252 6.1311 16.5972 7.4021C17.2017 8.00531 17.6814 8.72183 18.0086 9.51065C18.3359 10.2995 18.5043 11.1451 18.5043 11.9991C18.5043 12.8531 18.3359 13.6987 18.0086 14.4875C17.6814 15.2764 17.2017 15.9929 16.5972 16.5961C15.994 17.2006 15.2775 17.6803 14.4886 18.0075C13.6998 18.3348 12.8542 18.5032 12.0002 18.5032C11.1462 18.5032 10.3006 18.3348 9.51175 18.0075C8.72293 17.6803 8.00641 17.2006 7.4032 16.5961C6.79866 15.9929 6.31904 15.2764 5.99179 14.4875C5.66454 13.6987 5.49609 12.8531 5.49609 11.9991C5.49609 11.1451 5.66454 10.2995 5.99179 9.51065C6.31904 8.72183 6.79866 8.00531 7.4032 7.4021C8.00622 6.79711 8.72287 6.31727 9.51196 5.99017C10.301 5.66307 11.147 5.49517 12.0012 5.4961Z" fill="white"/>
<path d="M12.5288 12.0008L14.8856 9.64392C14.9214 9.60937 14.9499 9.56804 14.9695 9.52235C14.9892 9.47666 14.9995 9.42751 14.9999 9.37778C15.0004 9.32805 14.9909 9.27873 14.9721 9.23271C14.9532 9.18668 14.9254 9.14486 14.8903 9.1097C14.8551 9.07453 14.8133 9.04672 14.7672 9.02789C14.7212 9.00906 14.6719 8.99958 14.6222 9.00001C14.5724 9.00045 14.5233 9.01078 14.4776 9.03041C14.4319 9.05004 14.3906 9.07857 14.356 9.11434L11.9991 11.4711L9.64233 9.11434C9.57183 9.04539 9.47699 9.00703 9.37839 9.00757C9.27979 9.00811 9.18538 9.04752 9.11565 9.11724C9.04592 9.18696 9.00649 9.28136 9.00593 9.37996C9.00537 9.47857 9.04372 9.57341 9.11265 9.64392L11.4696 12.0008L9.11265 14.3577C9.07724 14.3924 9.04905 14.4337 9.02971 14.4793C9.01038 14.5249 9.00028 14.5739 9.00001 14.6234C8.99973 14.6729 9.00929 14.722 9.02812 14.7679C9.04695 14.8137 9.07469 14.8553 9.10972 14.8903C9.14475 14.9254 9.18638 14.9531 9.2322 14.9719C9.27802 14.9907 9.32712 15.0003 9.37666 15C9.42619 14.9997 9.47518 14.9896 9.52078 14.9703C9.56639 14.9509 9.6077 14.9227 9.64233 14.8873L11.9991 12.5305L14.356 14.8873C14.4292 14.9604 14.525 14.997 14.6208 14.997C14.7166 14.997 14.8126 14.9604 14.8856 14.8873C14.9558 14.8171 14.9953 14.7218 14.9953 14.6225C14.9953 14.5232 14.9558 14.428 14.8856 14.3577L12.5288 12.0008Z" fill="#C50101"/>
</g>
<defs>
<clipPath id="clip0_1626_1338">
<rect width="24" height="24" fill="white"/>
</clipPath>
</defs>
</svg>
